<svg width="41" height="40" viewBox="0 0 41 40" fill="none" xmlns="http://www.w3.org/2000/svg">
<path d="M8.34602 13.9925C8.77508 13.4562 9.066 12.7359 8.9893 12C8.3616 12.0312 7.59578 12.4141 7.15205 12.951C6.75386 13.4106 6.4015 14.1609 6.49318 14.8659C7.19789 14.927 7.90199 14.5138 8.34602 13.9925Z" fill="#080709"/>
<path d="M8.98179 15.0022C7.95804 14.941 7.08831 15.5828 6.59966 15.5828C6.1107 15.5828 5.3623 15.0327 4.55277 15.0477C3.49938 15.063 2.52208 15.6589 1.98728 16.6062C0.887747 18.5009 1.69697 21.3124 2.76656 22.8557C3.28577 23.6197 3.91163 24.4601 4.73613 24.4298C5.5154 24.3993 5.82069 23.9256 6.76743 23.9256C7.71386 23.9256 7.9889 24.4298 8.81371 24.4145C9.66877 24.3993 10.2036 23.6505 10.7228 22.8866C11.3187 22.0156 11.5622 21.1752 11.5775 21.1294C11.5622 21.1141 9.92853 20.4873 9.91325 18.6079C9.89797 17.0341 11.1961 16.2854 11.2573 16.2392C10.5241 15.1549 9.37876 15.0327 8.98148 15.0022" fill="#080709"/>
<path d="M19.184 12.875C21.4082 12.875 22.9572 14.4082 22.9572 16.6403C22.9572 18.8803 21.3764 20.4214 19.1284 20.4214H16.6659V24.3379H14.8867V12.875H19.184ZM16.6659 18.928H18.7073C20.2567 18.928 21.138 18.094 21.138 16.6482C21.138 15.2027 20.2564 14.3764 18.7152 14.3764H16.6659V18.928Z" fill="#080709"/>
<path d="M23.3984 21.963C23.3984 20.4934 24.5184 19.6514 26.5837 19.5243L28.7999 19.3892V18.7536C28.7999 17.8246 28.1884 17.3161 27.1001 17.3161C26.2023 17.3161 25.5508 17.7766 25.4163 18.4835H23.8113C23.8593 16.9983 25.2571 15.918 27.1478 15.918C29.1812 15.918 30.5078 16.9824 30.5078 18.6347V24.3381H28.8637V22.9638H28.824C28.3552 23.8614 27.3223 24.4252 26.2023 24.4252C24.5502 24.4252 23.3984 23.4405 23.3984 21.963ZM28.7999 21.2244V20.5808L26.822 20.7079C25.7097 20.7794 25.1303 21.1923 25.1303 21.915C25.1303 22.6142 25.7338 23.0671 26.679 23.0671C27.8861 23.0671 28.7999 22.2964 28.7999 21.2244Z" fill="#080709"/>
<path d="M32.0197 27.4044V26.0304C32.1309 26.046 32.4008 26.0619 32.5438 26.0619C33.3301 26.0619 33.775 25.7288 34.0452 24.8703L34.2041 24.3621L31.1934 16.0215H33.052L35.1493 22.7892H35.189L37.286 16.0215H39.0973L35.9753 24.7829C35.2602 26.7929 34.4422 27.4523 32.7106 27.4523C32.5756 27.4523 32.1386 27.4364 32.0197 27.4044Z" fill="#080709"/>
</svg>
