<svg width="64" height="65" viewBox="0 0 64 65" fill="none" xmlns="http://www.w3.org/2000/svg">
<path d="M27.6848 40.2982H16.8995V50.6686M36.313 23.7056H47.0983V13.3353M16 25.7859C17.2097 22.908 19.2347 20.4141 21.8448 18.5876C24.455 16.761 27.5457 15.6751 30.7657 15.4533C33.9857 15.2314 37.2058 15.8824 40.0602 17.3324C42.9146 18.7824 45.2887 20.9732 46.9128 23.6559M48 38.2179C46.7906 41.0964 44.7656 43.5908 42.1552 45.4177C39.5448 47.2447 36.4537 48.3308 33.2333 48.5527C30.0129 48.7746 26.7924 48.1233 23.9377 46.6729C21.0831 45.2226 18.7089 43.0312 17.085 40.348" stroke="#080709" stroke-width="4" stroke-linecap="round" stroke-linejoin="round"/>
</svg>
