<svg width="22" height="18" viewBox="0 0 22 18" fill="none" xmlns="http://www.w3.org/2000/svg">
<path d="M14.0769 5V3C14.0769 2.46957 13.8743 1.96086 13.5137 1.58579C13.153 1.21071 12.6639 1 12.1538 1H2.92308C2.41305 1 1.9239 1.21071 1.56326 1.58579C1.20261 1.96086 1 2.46957 1 3V15C1 15.5304 1.20261 16.0391 1.56326 16.4142C1.9239 16.7893 2.41305 17 2.92308 17H12.1538C12.6639 17 13.153 16.7893 13.5137 16.4142C13.8743 16.0391 14.0769 15.5304 14.0769 15V13M17.1538 5L21 9M21 9L17.1538 13M21 9H7.875" stroke="#7F7C83" stroke-width="1.5" stroke-linecap="round" stroke-linejoin="round"/>
</svg>
