<svg width="23" height="16" viewBox="0 0 23 16" fill="none" xmlns="http://www.w3.org/2000/svg">
<path d="M11.4841 1C7.83067 1 4.08301 3.11453 1.1327 7.34359C1.04849 7.46564 1.00234 7.6099 1.00009 7.75816C0.997834 7.90642 1.03958 8.05202 1.12004 8.17656C3.38692 11.725 7.08442 14.5 11.4841 14.5C15.836 14.5 19.6094 11.7166 21.8805 8.16016C21.9591 8.03805 22.0009 7.89591 22.0009 7.7507C22.0009 7.6055 21.9591 7.46335 21.8805 7.34125C19.6043 3.82562 15.8032 1 11.4841 1Z" stroke="#7F7C83" stroke-width="1.4" stroke-linecap="round" stroke-linejoin="round"/>
<path d="M11.5 11.5C13.5711 11.5 15.25 9.82107 15.25 7.75C15.25 5.67893 13.5711 4 11.5 4C9.42893 4 7.75 5.67893 7.75 7.75C7.75 9.82107 9.42893 11.5 11.5 11.5Z" stroke="#7F7C83" stroke-width="1.4" stroke-miterlimit="10"/>
</svg>
