<svg width="40" height="41" viewBox="0 0 40 41" fill="none" xmlns="http://www.w3.org/2000/svg">
<path d="M19.4841 13.5C15.8307 13.5 12.083 15.6145 9.1327 19.8436C9.04849 19.9656 9.00234 20.1099 9.00009 20.2582C8.99783 20.4064 9.03958 20.552 9.12004 20.6766C11.3869 24.225 15.0844 27 19.4841 27C23.836 27 27.6094 24.2166 29.8805 20.6602C29.9591 20.5381 30.0009 20.3959 30.0009 20.2507C30.0009 20.1055 29.9591 19.9634 29.8805 19.8412C27.6043 16.3256 23.8032 13.5 19.4841 13.5Z" stroke="#7F7C83" stroke-width="1.4" stroke-linecap="round" stroke-linejoin="round"/>
<path d="M19.5 24C21.5711 24 23.25 22.3211 23.25 20.25C23.25 18.1789 21.5711 16.5 19.5 16.5C17.4289 16.5 15.75 18.1789 15.75 20.25C15.75 22.3211 17.4289 24 19.5 24Z" stroke="#7F7C83" stroke-width="1.4" stroke-miterlimit="10"/>
</svg>
