<svg width="23" height="18" viewBox="0 0 23 18" fill="none" xmlns="http://www.w3.org/2000/svg">
<path d="M19.5009 17.9864C19.4024 17.9866 19.3049 17.9672 19.2139 17.9295C19.1229 17.8918 19.0403 17.8364 18.9708 17.7666L2.47078 1.26658C2.33606 1.12478 2.26207 0.93597 2.26457 0.740398C2.26708 0.544827 2.34588 0.357971 2.48418 0.21967C2.62248 0.0813687 2.80934 0.00256547 3.00491 6.15386e-05C3.20048 -0.00244239 3.38929 0.0715513 3.53109 0.206266L20.0311 16.7063C20.1359 16.8112 20.2073 16.9448 20.2362 17.0902C20.2651 17.2356 20.2503 17.3864 20.1935 17.5234C20.1368 17.6604 20.0407 17.7775 19.9174 17.8599C19.7942 17.9423 19.6492 17.9864 19.5009 17.9864ZM11.235 14.9864C9.29015 14.9864 7.41469 14.4108 5.66062 13.2755C4.06359 12.2442 2.62593 10.7672 1.50281 9.00986V9.00611C2.4375 7.66689 3.46125 6.53439 4.56094 5.62127C4.57088 5.61295 4.579 5.60266 4.58477 5.59105C4.59053 5.57943 4.59383 5.56675 4.59445 5.5538C4.59506 5.54085 4.59299 5.52791 4.58835 5.5158C4.58371 5.50369 4.57661 5.49268 4.5675 5.48345L3.63375 4.55111C3.61715 4.53438 3.59487 4.52451 3.57133 4.52347C3.54779 4.52243 3.52472 4.53029 3.50672 4.54548C2.33859 5.52986 1.25437 6.73736 0.268591 8.15111C0.0989903 8.39453 0.00558437 8.68288 0.00024264 8.97952C-0.00509909 9.27615 0.0778645 9.56767 0.238591 9.81705C1.47656 11.7544 3.06984 13.3861 4.84547 14.535C6.84468 15.8302 8.99625 16.4864 11.235 16.4864C12.4434 16.4827 13.6433 16.2835 14.7881 15.8967C14.8032 15.8916 14.8168 15.8827 14.8275 15.8709C14.8382 15.8591 14.8457 15.8447 14.8493 15.8292C14.8529 15.8137 14.8525 15.7975 14.8481 15.7821C14.8437 15.7668 14.8355 15.7528 14.8242 15.7416L13.8127 14.73C13.7894 14.7073 13.7606 14.691 13.7291 14.6828C13.6976 14.6746 13.6645 14.6747 13.6331 14.6831C12.8497 14.8849 12.044 14.9868 11.235 14.9864ZM22.2591 8.1708C21.0187 6.25267 19.4095 4.6233 17.6058 3.45845C15.6103 2.16845 13.4072 1.48642 11.235 1.48642C10.0394 1.48854 8.85266 1.69185 7.72453 2.08783C7.7095 2.09306 7.69605 2.10203 7.68544 2.1139C7.67483 2.12576 7.66742 2.14013 7.66391 2.15565C7.66039 2.17118 7.66088 2.18734 7.66534 2.20262C7.66979 2.21789 7.67806 2.23179 7.68937 2.24298L8.69953 3.25314C8.72305 3.27626 8.75224 3.29276 8.78417 3.30099C8.81611 3.30922 8.84964 3.30889 8.8814 3.30002C9.64873 3.09244 10.4401 2.987 11.235 2.98642C13.1423 2.98642 15.0122 3.56908 16.792 4.7208C18.4191 5.7708 19.8736 7.24642 20.9995 8.98642C21.0004 8.98749 21.0008 8.98881 21.0008 8.99017C21.0008 8.99153 21.0004 8.99285 20.9995 8.99392C20.1822 10.2806 19.168 11.431 17.9939 12.4031C17.9839 12.4114 17.9756 12.4217 17.9698 12.4334C17.9639 12.445 17.9606 12.4577 17.9599 12.4707C17.9592 12.4837 17.9613 12.4967 17.9659 12.5089C17.9706 12.5211 17.9777 12.5322 17.9869 12.5414L18.9197 13.4738C18.9362 13.4904 18.9584 13.5003 18.9818 13.5014C19.0052 13.5026 19.0282 13.4949 19.0462 13.4799C20.2997 12.4245 21.3847 11.1839 22.2637 9.80111C22.4191 9.55743 22.5013 9.27427 22.5005 8.98527C22.4996 8.69627 22.4158 8.41358 22.2591 8.1708Z" fill="#7F7C83"/>
<path d="M11.2509 4.48633C10.9139 4.48615 10.5779 4.52388 10.2492 4.59883C10.2326 4.60228 10.2173 4.61016 10.2048 4.62164C10.1923 4.63312 10.1832 4.64777 10.1784 4.66402C10.1736 4.68028 10.1733 4.69754 10.1775 4.71396C10.1817 4.73038 10.1903 4.74534 10.2024 4.75727L15.48 10.0335C15.4919 10.0456 15.5069 10.0542 15.5233 10.0584C15.5397 10.0626 15.557 10.0623 15.5733 10.0575C15.5895 10.0527 15.6042 10.0435 15.6156 10.0311C15.6271 10.0186 15.635 10.0032 15.6384 9.98664C15.7887 9.3276 15.7886 8.64317 15.638 7.98419C15.4875 7.32521 15.1904 6.70861 14.7689 6.18018C14.3474 5.65175 13.8123 5.22507 13.2032 4.93183C12.5942 4.63858 11.9269 4.48632 11.2509 4.48633ZM7.02189 7.93914C7.00996 7.92709 6.995 7.9185 6.97858 7.91428C6.96216 7.91006 6.9449 7.91037 6.92864 7.91518C6.91239 7.91999 6.89774 7.92912 6.88626 7.94159C6.87478 7.95406 6.86689 7.96942 6.86345 7.98602C6.69345 8.72868 6.7148 9.50234 6.92549 10.2345C7.13617 10.9667 7.5293 11.6333 8.06802 12.1721C8.60674 12.7108 9.27343 13.1039 10.0056 13.3146C10.7377 13.5253 11.5114 13.5466 12.2541 13.3766C12.2707 13.3732 12.286 13.3653 12.2985 13.3538C12.311 13.3424 12.3201 13.3277 12.3249 13.3114C12.3297 13.2952 12.33 13.2779 12.3258 13.2615C12.3216 13.2451 12.313 13.2301 12.3009 13.2182L7.02189 7.93914Z" fill="#7F7C83"/>
</svg>
