<svg xmlns="http://www.w3.org/2000/svg" width="40" height="40" viewBox="0 0 40 40" fill="none">
    <rect width="40" height="40" rx="20" fill="#FCFBFE"/>
    <path d="M26.3021 14.5831H24.0258C23.1546 14.5831 22.4098 14.8923 21.7916 15.5105C21.2014 16.1288 20.9063 16.8735 20.9063 17.7447V19.9789H19.0937V22.6768H20.9063V28.9578H23.6042V22.6768H26.3021V19.9789H23.6042V18.1663C23.6042 17.9415 23.6885 17.7447 23.8571 17.5761C24.0258 17.3794 24.2365 17.281 24.4895 17.281H26.3021V14.5831ZM11 12C11 11.4477 11.4477 11 12 11H28C28.5523 11 29 11.4477 29 12V27.9578C29 28.5101 28.5523 28.9578 28 28.9578H12C11.4477 28.9578 11 28.5101 11 27.9578V12Z" fill="#080709"/>
    </svg>