<svg width="20" height="20" viewBox="0 0 20 20" fill="none" xmlns="http://www.w3.org/2000/svg">
<path fill-rule="evenodd" clip-rule="evenodd" d="M16.9975 8.34194C17.1678 8.29994 17.3277 8.22588 17.4681 8.12402C17.6086 8.02216 17.7268 7.89451 17.8159 7.74842C17.905 7.60232 17.9633 7.44067 17.9874 7.27276C18.0115 7.10485 18.001 6.93399 17.9564 6.77002C17.9118 6.60606 17.834 6.45221 17.7276 6.31735C17.6212 6.18248 17.4881 6.06926 17.3362 5.98418C17.1842 5.89911 17.0163 5.84387 16.8421 5.82165C16.6679 5.79942 16.4909 5.81065 16.3212 5.85468C13.7832 6.4969 11.8756 6.78426 10.0012 6.77655C8.1229 6.76948 6.20991 6.46605 3.65592 5.85082C3.313 5.76813 2.95008 5.82025 2.64699 5.99573C2.34391 6.17121 2.12549 6.45566 2.03978 6.78652C1.95407 7.11737 2.0081 7.46752 2.18997 7.75994C2.37185 8.05237 2.66668 8.2631 3.0096 8.34579C4.24228 8.6428 5.36502 8.87809 6.43446 9.04652C6.2239 10.3965 5.10449 12.6202 4.45883 13.8198C4.24295 14.2223 4.50281 14.7166 4.9679 14.7738C8.92381 15.2573 11.4258 15.2701 15.0659 14.7816C15.519 14.7205 15.7722 14.2428 15.5683 13.8475C14.9393 12.6318 13.8092 10.3303 13.5694 9.06259C14.6381 8.89545 15.7622 8.65373 16.9975 8.34194ZM6.66433 15.7941V18.0351C6.66442 18.2689 6.75249 18.4946 6.91216 18.6704C7.07183 18.8461 7.29224 18.96 7.53239 18.9907C7.77254 19.0214 8.01609 18.967 8.21773 18.8374C8.41938 18.7079 8.5654 18.5121 8.62863 18.2865L9.25496 16.0474C8.38757 16.0048 7.52294 15.9203 6.66433 15.7941ZM11.4018 16.0429L12.0295 18.2865C12.0927 18.5121 12.2387 18.7079 12.4404 18.8374C12.642 18.967 12.8856 19.0214 13.1257 18.9907C13.3659 18.96 13.5863 18.8461 13.746 18.6704C13.9056 18.4946 13.9937 18.2689 13.9938 18.0351V15.7851C13.1346 15.9106 12.2696 15.9971 11.4018 16.0429Z" fill="#EB92B9"/>
<circle cx="10" cy="3" r="2" fill="#EB92B9"/>
</svg>
