<svg width="44" height="44" viewBox="0 0 44 44" fill="none" xmlns="http://www.w3.org/2000/svg">
<g id="instagram">
<path id="&#239;&#141;&#160; &#239;&#141;&#130; &#239;&#144;&#136;" d="M28.3021 16.5831H26.0258C25.1546 16.5831 24.4098 16.8923 23.7916 17.5105C23.2014 18.1288 22.9063 18.8735 22.9063 19.7447V21.9789H21.0937V24.6768H22.9063V30.9578H25.6042V24.6768H28.3021V21.9789H25.6042V20.1663C25.6042 19.9415 25.6885 19.7447 25.8571 19.5761C26.0258 19.3794 26.2365 19.281 26.4895 19.281H28.3021V16.5831ZM13 14C13 13.4477 13.4477 13 14 13H30C30.5523 13 31 13.4477 31 14V29.9578C31 30.5101 30.5523 30.9578 30 30.9578H14C13.4477 30.9578 13 30.5101 13 29.9578V14Z" fill="black"/>
</g>
</svg>
