<svg width="64" height="65" viewBox="0 0 64 65" fill="none" xmlns="http://www.w3.org/2000/svg">
<path d="M16.2058 45.3316C16.2058 46.7471 16.8109 48.1045 17.888 49.1054C18.9652 50.1063 20.4261 50.6686 21.9494 50.6686H30.2058C30.301 50.6686 30.3923 50.6335 30.4596 50.5709C30.5269 50.5083 30.5648 50.4235 30.5648 50.335V34.9912C30.5648 34.9027 30.5269 34.8179 30.4596 34.7553C30.3923 34.6928 30.301 34.6576 30.2058 34.6576H16.9237C16.7333 34.6576 16.5507 34.7279 16.4161 34.853C16.2814 34.9781 16.2058 35.1478 16.2058 35.3247V45.3316ZM30.5648 31.6556V22.6494H33.4366V31.6556C33.4366 31.744 33.4744 31.8289 33.5417 31.8914C33.609 31.954 33.7003 31.9891 33.7955 31.9891H46.3596C46.8488 31.9891 47.3344 31.9115 47.7955 31.7598C48.6347 31.483 49.3611 30.9717 49.8752 30.2961C50.3894 29.6206 50.6661 28.8138 50.6673 27.9864V26.6521C50.6673 25.5905 50.2135 24.5724 49.4056 23.8217C48.5978 23.0711 47.5021 22.6494 46.3596 22.6494H42.7214C42.6902 22.6489 42.6596 22.6409 42.6327 22.626C42.6058 22.6112 42.5835 22.5901 42.5681 22.5648C42.5527 22.5396 42.5447 22.511 42.5448 22.4819C42.5449 22.4529 42.5532 22.4244 42.5689 22.3992C43.3997 21.0957 43.6696 19.5485 43.3243 18.0679C42.9791 16.5873 42.0442 15.2827 40.7072 14.4157C39.3702 13.5487 37.7298 13.1834 36.1151 13.3931C34.5004 13.6027 33.0307 14.3718 32.0007 15.5462C30.9706 14.3718 29.5009 13.6027 27.8862 13.3931C26.2715 13.1834 24.6311 13.5487 23.2941 14.4157C21.9571 15.2827 21.0222 16.5873 20.677 18.0679C20.3317 19.5485 20.6016 21.0957 21.4324 22.3992C21.4481 22.4244 21.4564 22.4529 21.4565 22.4819C21.4566 22.511 21.4486 22.5396 21.4332 22.5648C21.4178 22.5901 21.3955 22.6112 21.3686 22.626C21.3417 22.6409 21.3111 22.6489 21.2799 22.6494H17.6417C16.4992 22.6494 15.4035 23.0711 14.5957 23.8217C13.7878 24.5724 13.334 25.5905 13.334 26.6521V27.9864C13.3353 28.8138 13.6119 29.6206 14.1261 30.2961C14.6402 30.9717 15.3666 31.483 16.2058 31.7598C16.6669 31.9115 17.1525 31.9891 17.6417 31.9891H30.2058C30.301 31.9891 30.3923 31.954 30.4596 31.8914C30.5269 31.8289 30.5648 31.744 30.5648 31.6556ZM33.4366 19.3138C33.4366 18.654 33.6471 18.0091 34.0415 17.4606C34.436 16.912 34.9966 16.4845 35.6526 16.232C36.3085 15.9796 37.0303 15.9135 37.7266 16.0422C38.423 16.1709 39.0626 16.4886 39.5646 16.9551C40.0667 17.4216 40.4086 18.016 40.5471 18.663C40.6856 19.3101 40.6145 19.9807 40.3428 20.5902C40.0711 21.1997 39.611 21.7207 39.0206 22.0872C38.4303 22.4537 37.7363 22.6494 37.0263 22.6494H33.4366V19.3138ZM26.7183 15.9865C27.2101 15.9537 27.7039 16.0154 28.1689 16.1678C28.6339 16.3202 29.0601 16.5599 29.421 16.8721C29.7819 17.1843 30.0697 17.5622 30.2665 17.9823C30.4632 18.4024 30.5648 18.8556 30.5648 19.3138V22.6494H26.975C26.0468 22.6472 25.1556 22.3109 24.4884 21.7112C23.8212 21.1116 23.43 20.2951 23.3968 19.4331C23.3636 18.5711 23.691 17.7307 24.3103 17.0882C24.9296 16.4458 25.7927 16.0512 26.7183 15.9873V15.9865ZM33.7955 50.6686H42.0519C43.5752 50.6686 45.0361 50.1063 46.1133 49.1054C47.1904 48.1045 47.7955 46.7471 47.7955 45.3316V35.3247C47.7955 35.1478 47.7199 34.9781 47.5852 34.853C47.4506 34.7279 47.268 34.6576 47.0776 34.6576H33.7955C33.7003 34.6576 33.609 34.6928 33.5417 34.7553C33.4744 34.8179 33.4366 34.9027 33.4366 34.9912V50.335C33.4366 50.4235 33.4744 50.5083 33.5417 50.5709C33.609 50.6335 33.7003 50.6686 33.7955 50.6686Z" fill="#080709"/>
</svg>
