<svg width="40" height="40" viewBox="0 0 40 40" fill="none" xmlns="http://www.w3.org/2000/svg">
<g clip-path="url(#clip0_123_14186)">
<path d="M18.9218 19.7753V24.4412H17.4375V12.9224H21.3612C21.8313 12.9144 22.2984 12.9995 22.7355 13.1726C23.1727 13.3458 23.5713 13.6036 23.9084 13.9314C24.2278 14.2294 24.4853 14.5874 24.6662 14.985C24.8472 15.3826 24.9479 15.812 24.9628 16.2486C24.9777 16.6851 24.9064 17.1203 24.753 17.5294C24.5996 17.9384 24.3671 18.3131 24.0688 18.6322L23.9084 18.8013C23.2231 19.4531 22.3075 19.8074 21.3612 19.7841L18.9218 19.7753ZM18.9218 14.3338V18.3989H21.3976C21.9473 18.4164 22.4781 18.2021 22.863 17.8099C23.1383 17.5229 23.3232 17.1613 23.3947 16.77C23.4661 16.3788 23.4209 15.9751 23.2648 15.6094C23.1086 15.2436 22.8483 14.9318 22.5164 14.7128C22.1844 14.4938 21.7953 14.3772 21.3976 14.3775L18.9218 14.3338ZM28.376 16.2993C29.3237 16.2555 30.2511 16.5734 30.9684 17.1931C31.6173 17.8201 31.9629 18.6949 31.9162 19.5975V24.4587H30.5033V23.3418H30.4319C30.1785 23.7607 29.8202 24.1063 29.3924 24.3443C28.9646 24.5824 28.4821 24.7047 27.9925 24.6993C27.1933 24.7251 26.414 24.4475 25.8112 23.9221C25.5256 23.6892 25.2968 23.3943 25.1419 23.0598C24.9871 22.7254 24.9103 22.3601 24.9174 21.9916C24.9006 21.6192 24.9729 21.2482 25.1284 20.9094C25.2838 20.5705 25.518 20.2737 25.8112 20.0436C26.5307 19.5262 27.4014 19.2621 28.287 19.2927C29.0409 19.2636 29.7889 19.4283 30.4596 19.7753V19.4721C30.4645 19.2213 30.4123 18.9727 30.307 18.7451C30.2016 18.5175 30.0459 18.3169 29.8516 18.1583C29.4613 17.8035 28.95 17.6115 28.4226 17.6218C28.0396 17.6182 27.662 17.7123 27.3255 17.8952C26.989 18.0781 26.7047 18.3438 26.4994 18.6672L25.1945 17.8449C25.5488 17.3372 26.0272 16.9286 26.5841 16.6581C27.141 16.3875 27.7579 16.264 28.376 16.2993ZM26.4994 22.0266C26.4959 22.2155 26.5389 22.4023 26.6246 22.5706C26.7103 22.7389 26.8361 22.8836 26.9908 22.9919C27.316 23.2485 27.7199 23.3841 28.1354 23.3753C28.7609 23.3739 29.3602 23.1275 29.8064 22.6871C30.2511 22.2701 30.5033 21.6883 30.5033 21.0789C29.942 20.6798 29.26 20.4871 28.5728 20.5335C28.0393 20.5125 27.5131 20.6627 27.071 20.9622C26.8959 21.0793 26.7523 21.2376 26.6526 21.4232C26.553 21.6088 26.5004 21.816 26.4994 22.0266ZM40.0391 16.5588L35.0963 27.9172H33.5682L35.436 23.9396L32.1932 16.5588H33.8015L36.1519 22.2235L38.4396 16.5588H40.0391Z" fill="#5F6368"/>
<path d="M12.9358 18.7633C12.9358 18.3142 12.9008 17.8651 12.8294 17.4219H6.57422V19.9691H10.148C10.0752 20.374 9.92147 20.7599 9.69598 21.1039C9.4705 21.4479 9.17789 21.7429 8.83569 21.9711V23.6245H10.9703C11.6194 22.9965 12.1296 22.2395 12.4681 21.4022C12.8067 20.5649 12.966 19.6659 12.9358 18.7633Z" fill="#4285F4"/>
<path d="M6.58 25.2324C8.1931 25.2767 9.76247 24.7048 10.9688 23.6329L8.83127 21.9707C8.31767 22.3 7.73573 22.5079 7.12972 22.5785C6.52372 22.6491 5.90959 22.5805 5.33405 22.3781C4.75851 22.1756 4.23671 21.8446 3.80833 21.4102C3.37995 20.9758 3.05627 20.4494 2.86191 19.8711H0.671875V21.577C1.21989 22.675 2.06295 23.5986 3.10651 24.2443C4.15006 24.8899 5.35286 25.2321 6.58 25.2324Z" fill="#34A853"/>
<path d="M2.86313 19.8802C2.5858 19.0598 2.5858 18.1709 2.86313 17.3505V15.6445H0.673102C0.206206 16.5652 -0.0371094 17.583 -0.0371094 18.6154C-0.0371094 19.6477 0.206206 20.6655 0.673102 21.5862L2.86313 19.8802Z" fill="#FBBC04"/>
<path d="M6.58 14.6196C7.52339 14.6024 8.43534 14.9588 9.11705 15.6111L11.0126 13.7258C9.80395 12.5915 8.20087 11.9727 6.54355 12.0009C5.32367 12.007 4.12932 12.3509 3.09291 12.9943C2.0565 13.6377 1.21852 14.5556 0.671875 15.6461L2.86191 17.3535C3.11798 16.5663 3.6144 15.8791 4.28135 15.3887C4.9483 14.8983 5.75222 14.6293 6.58 14.6196Z" fill="#EA4335"/>
</g>
<defs>
<clipPath id="clip0_123_14186">
<rect width="40" height="40" rx="2" fill="white"/>
</clipPath>
</defs>
</svg>
