<svg width="59" height="58" viewBox="0 0 59 58" fill="none" xmlns="http://www.w3.org/2000/svg">
<rect x="0.5" width="58" height="58" rx="29" fill="#F5F5F5"/>
<path d="M45.1888 25.8664H43.9V25.8H29.5V32.2H38.5424C37.2232 35.9256 33.6784 38.6 29.5 38.6C24.1984 38.6 19.9 34.3016 19.9 29C19.9 23.6984 24.1984 19.4 29.5 19.4C31.9472 19.4 34.1736 20.3232 35.8688 21.8312L40.3944 17.3056C37.5368 14.6424 33.7144 13 29.5 13C20.664 13 13.5 20.164 13.5 29C13.5 37.836 20.664 45 29.5 45C38.336 45 45.5 37.836 45.5 29C45.5 27.9272 45.3896 26.88 45.1888 25.8664Z" fill="#08070D"/>
<path d="M15.3447 21.5528L20.6015 25.408C22.0239 21.8864 25.4687 19.4 29.4999 19.4C31.9471 19.4 34.1735 20.3232 35.8687 21.8312L40.3943 17.3056C37.5367 14.6424 33.7143 13 29.4999 13C23.3543 13 18.0247 16.4696 15.3447 21.5528Z" fill="#08070D"/>
<path d="M29.5001 45C33.6329 45 37.3881 43.4184 40.2273 40.8464L35.2753 36.656C33.6149 37.9187 31.5861 38.6016 29.5001 38.6C25.3385 38.6 21.8049 35.9464 20.4737 32.2432L15.2561 36.2632C17.9041 41.4448 23.2817 45 29.5001 45Z" fill="#08070D"/>
<path d="M45.1888 25.8662H43.9V25.7998H29.5V32.1998H38.5424C37.9114 33.9729 36.7747 35.5223 35.2728 36.6566L35.2752 36.655L40.2272 40.8454C39.8768 41.1638 45.5 36.9998 45.5 28.9998C45.5 27.927 45.3896 26.8798 45.1888 25.8662Z" fill="#08070D"/>
</svg>
