<svg width="36" height="36" viewBox="0 0 36 36" fill="none" xmlns="http://www.w3.org/2000/svg">
<g id="Icon / 24 px / Heart ">
<g id="Icon">
<path id="Vector" d="M18 26C18 26 9 20.9091 9 14.7273C9.00018 13.6347 9.37499 12.5759 10.0607 11.7308C10.7464 10.8858 11.7007 10.3068 12.7613 10.0921C13.8219 9.8775 14.9233 10.0405 15.8784 10.5535C16.8334 11.0665 17.5831 11.8977 18 12.9059L18 12.9059C18.4169 11.8977 19.1666 11.0665 20.1216 10.5535C21.0767 10.0405 22.1781 9.8775 23.2387 10.0921C24.2993 10.3068 25.2536 10.8858 25.9393 11.7308C26.625 12.5759 26.9998 13.6347 27 14.7273C27 20.9091 18 26 18 26Z" stroke="#C18170" strokeWidth="1.5" strokeLinecap="round" strokeLinejoin="round"/>
</g>
</g>
</svg>
