<svg width="40" height="40" viewBox="0 0 40 40" fill="none" xmlns="http://www.w3.org/2000/svg">
<path d="M16.6667 4.99984H23.3334C24.2501 4.99984 25.0001 4.24984 25.0001 3.33317C25.0001 2.4165 24.2501 1.6665 23.3334 1.6665H16.6667C15.7501 1.6665 15.0001 2.4165 15.0001 3.33317C15.0001 4.24984 15.7501 4.99984 16.6667 4.99984ZM31.7167 12.3165L32.9667 11.0665C33.2749 10.7564 33.4479 10.337 33.4479 9.89984C33.4479 9.46266 33.2749 9.04325 32.9667 8.73317L32.9501 8.7165C32.64 8.40832 32.2206 8.23535 31.7834 8.23535C31.3462 8.23535 30.9268 8.40832 30.6167 8.7165L29.3667 9.9665C26.7123 7.83038 23.4073 6.66599 20.0001 6.6665C12.0001 6.6665 5.20005 13.2665 5.00005 21.2665C4.94615 23.2699 5.29434 25.2637 6.02403 27.1302C6.75372 28.9967 7.85012 30.698 9.24845 32.1336C10.6468 33.5693 12.3187 34.7101 14.1653 35.4886C16.012 36.2672 17.996 36.6677 20.0001 36.6665C22.8239 36.668 25.5908 35.8719 27.9819 34.3698C30.3731 32.8677 32.2914 30.7207 33.5158 28.1761C34.7402 25.6315 35.2209 22.7928 34.9026 19.9869C34.5843 17.1811 33.48 14.5222 31.7167 12.3165ZM21.6667 21.6665C21.6667 22.5832 20.9167 23.3332 20.0001 23.3332C19.0834 23.3332 18.3334 22.5832 18.3334 21.6665V14.9998C18.3334 14.0832 19.0834 13.3332 20.0001 13.3332C20.9167 13.3332 21.6667 14.0832 21.6667 14.9998V21.6665Z" fill="#CCCACD"/>
</svg>
