<svg width="44" height="44" viewBox="0 0 44 44" fill="none" xmlns="http://www.w3.org/2000/svg">
<g id="instagram">
<path id="Vector" d="M22 14.6217C24.4031 14.6217 24.6877 14.6308 25.6367 14.6741C26.5142 14.7141 26.9908 14.8608 27.3079 14.984C27.728 15.1472 28.0278 15.3423 28.3428 15.6572C28.6577 15.9722 28.8528 16.272 29.016 16.6921C29.1392 17.0092 29.2859 17.4858 29.3259 18.3632C29.3692 19.3123 29.3783 19.5969 29.3783 22C29.3783 24.4031 29.3692 24.6878 29.3259 25.6368C29.2859 26.5143 29.1392 26.9908 29.016 27.308C28.8528 27.728 28.6577 28.0279 28.3428 28.3428C28.0278 28.6577 27.728 28.8528 27.3079 29.016C26.9908 29.1393 26.5142 29.2859 25.6367 29.3259C24.6879 29.3692 24.4032 29.3784 22 29.3784C19.5967 29.3784 19.3121 29.3692 18.3632 29.3259C17.4857 29.2859 17.0092 29.1393 16.6921 29.016C16.272 28.8528 15.9721 28.6577 15.6572 28.3428C15.3423 28.0279 15.1472 27.728 14.984 27.308C14.8607 26.9908 14.7141 26.5143 14.6741 25.6368C14.6308 24.6878 14.6216 24.4031 14.6216 22C14.6216 19.5969 14.6308 19.3123 14.6741 18.3633C14.7141 17.4858 14.8607 17.0092 14.984 16.6921C15.1472 16.272 15.3423 15.9722 15.6572 15.6572C15.9721 15.3423 16.272 15.1472 16.6921 14.984C17.0092 14.8608 17.4857 14.7141 18.3632 14.6741C19.3122 14.6308 19.5969 14.6217 22 14.6217ZM22 13C19.5557 13 19.2493 13.0104 18.2893 13.0542C17.3313 13.0979 16.6771 13.25 16.1046 13.4725C15.5128 13.7025 15.0109 14.0102 14.5105 14.5106C14.0102 15.0109 13.7025 15.5128 13.4725 16.1047C13.25 16.6772 13.0979 17.3314 13.0541 18.2893C13.0103 19.2493 13 19.5557 13 22C13 24.4443 13.0103 24.7508 13.0541 25.7107C13.0979 26.6687 13.25 27.3229 13.4725 27.8954C13.7025 28.4872 14.0102 28.9891 14.5105 29.4895C15.0109 29.9898 15.5128 30.2975 16.1046 30.5275C16.6771 30.75 17.3313 30.9021 18.2893 30.9459C19.2493 30.9897 19.5557 31 22 31C24.4443 31 24.7507 30.9897 25.7107 30.9459C26.6686 30.9021 27.3228 30.75 27.8953 30.5275C28.4872 30.2975 28.9891 29.9898 29.4894 29.4895C29.9898 28.9891 30.2975 28.4872 30.5275 27.8954C30.75 27.3229 30.9021 26.6687 30.9458 25.7107C30.9896 24.7508 31 24.4443 31 22C31 19.5557 30.9896 19.2493 30.9458 18.2893C30.9021 17.3314 30.75 16.6772 30.5275 16.1047C30.2975 15.5128 29.9898 15.0109 29.4894 14.5106C28.9891 14.0102 28.4872 13.7025 27.8953 13.4725C27.3228 13.25 26.6686 13.0979 25.7107 13.0542C24.7507 13.0104 24.4443 13 22 13ZM22 17.3784C19.4475 17.3784 17.3783 19.4476 17.3783 22C17.3783 24.5525 19.4475 26.6217 22 26.6217C24.5524 26.6217 26.6216 24.5525 26.6216 22C26.6216 19.4476 24.5524 17.3784 22 17.3784ZM22 25C20.3431 25 19 23.6569 19 22C19 20.3432 20.3431 19 22 19C23.6568 19 25 20.3432 25 22C25 23.6569 23.6568 25 22 25ZM27.8842 17.1958C27.8842 17.7923 27.4007 18.2758 26.8042 18.2758C26.2077 18.2758 25.7242 17.7923 25.7242 17.1958C25.7242 16.5993 26.2077 16.1158 26.8042 16.1158C27.4007 16.1158 27.8842 16.5993 27.8842 17.1958Z" fill="#0A0A08"/>
</g>
</svg>
