<svg width="40" height="40" viewBox="0 0 40 40" fill="none" xmlns="http://www.w3.org/2000/svg">
<path d="M30.7814 37.5002C30.5183 37.5012 30.2616 37.4192 30.0478 37.2658L20.0001 29.9815L9.95248 37.2658C9.73781 37.4215 9.4792 37.5049 9.21402 37.504C8.94884 37.503 8.69084 37.4177 8.47732 37.2605C8.26379 37.1032 8.10581 36.8821 8.02621 36.6292C7.94661 36.3762 7.94952 36.1045 8.03451 35.8533L11.9533 24.2463L1.79701 17.2815C1.57702 17.1308 1.41098 16.9137 1.32316 16.6619C1.23534 16.4101 1.23033 16.1369 1.30887 15.882C1.38741 15.6272 1.54539 15.4042 1.75971 15.2455C1.97404 15.0869 2.23348 15.0009 2.50013 15.0002H15.0298L18.8111 3.3635C18.8925 3.11226 19.0515 2.89329 19.2651 2.73798C19.4787 2.58268 19.736 2.49902 20.0001 2.49902C20.2642 2.49902 20.5216 2.58268 20.7352 2.73798C20.9488 2.89329 21.1077 3.11226 21.1892 3.3635L24.9704 15.0041H37.5001C37.7671 15.004 38.0271 15.0893 38.2421 15.2477C38.4571 15.406 38.6157 15.6291 38.6947 15.8841C38.7738 16.1391 38.7691 16.4127 38.6813 16.6649C38.5936 16.917 38.4274 17.1345 38.2072 17.2854L28.047 24.2463L31.9634 35.8502C32.0269 36.0381 32.0447 36.2384 32.0155 36.4345C31.9863 36.6306 31.9108 36.817 31.7953 36.9782C31.6798 37.1394 31.5276 37.2708 31.3513 37.3616C31.175 37.4523 30.9797 37.4999 30.7814 37.5002Z" fill="#CCCACD"/>
</svg>
