<svg width="40" height="40" viewBox="0 0 40 40" fill="none" xmlns="http://www.w3.org/2000/svg">
<path d="M19.9999 35C19.4981 34.9994 19.0081 34.8477 18.5936 34.5648C12.4538 30.3969 9.7952 27.5391 8.3288 25.7523C5.2038 21.9438 3.7077 18.0336 3.74989 13.7992C3.79911 8.94688 7.69208 5 12.428 5C15.8718 5 18.2569 6.93984 19.646 8.55547C19.69 8.60613 19.7444 8.64676 19.8054 8.6746C19.8665 8.70244 19.9328 8.71685 19.9999 8.71685C20.067 8.71685 20.1333 8.70244 20.1944 8.6746C20.2554 8.64676 20.3098 8.60613 20.3538 8.55547C21.7429 6.93828 24.128 5 27.5718 5C32.3077 5 36.2007 8.94688 36.2499 13.8C36.2921 18.0352 34.7944 21.9453 31.671 25.7531C30.2046 27.5398 27.546 30.3977 21.4061 34.5656C20.9916 34.8482 20.5016 34.9996 19.9999 35Z" fill="#CCCACD"/>
</svg>
