<svg width="64" height="65" viewBox="0 0 64 65" fill="none" xmlns="http://www.w3.org/2000/svg">
<path d="M10.55 14.002H24.95C25.9388 14.002 27.3236 14.5696 28.022 15.2607L45.8756 32.9283C46.2122 33.263 46.4012 33.716 46.4012 34.1883C46.4012 34.6605 46.2122 35.1135 45.8756 35.4482L30.422 50.7408C30.0838 51.074 29.626 51.261 29.1488 51.261C28.6716 51.261 28.2138 51.074 27.8756 50.7408L10.022 33.0732C9.3212 32.3797 8.75 31.0117 8.75 30.0332V15.7832C8.75127 15.3112 8.94132 14.8588 9.27861 14.5251C9.6159 14.1913 10.073 14.0032 10.55 14.002ZM19.55 28.252C20.0229 28.2518 20.4912 28.1595 20.928 27.9802C21.3649 27.801 21.7618 27.5384 22.0961 27.2073C22.4304 26.8763 22.6955 26.4834 22.8763 26.0509C23.0572 25.6185 23.1502 25.1551 23.15 24.6871C23.1498 24.2191 23.0565 23.7557 22.8754 23.3234C22.6943 22.8911 22.4289 22.4983 22.0944 22.1675C21.7599 21.8367 21.3628 21.5743 20.9258 21.3954C20.4888 21.2164 20.0205 21.1244 19.5476 21.1246C18.5925 21.1249 17.6767 21.5007 17.0015 22.1692C16.3264 22.8377 15.9473 23.7443 15.9476 24.6895C15.9479 25.6346 16.3276 26.5409 17.0032 27.209C17.6788 27.8771 18.5949 28.2523 19.55 28.252Z" fill="#080709"/>
<path d="M51.95 34.1895L31.55 14.002H34.55C35.5388 14.002 36.9236 14.5696 37.622 15.2607L55.4756 32.9283C55.8122 33.263 56.0012 33.716 56.0012 34.1883C56.0012 34.6605 55.8122 35.1135 55.4756 35.4482L40.022 50.7408C39.6838 51.074 39.226 51.261 38.7488 51.261C38.2716 51.261 37.8138 51.074 37.4756 50.7408L36.3476 49.6246L51.9476 34.1871L51.95 34.1895Z" fill="#080709"/>
</svg>
