<svg width="100" height="42" viewBox="0 0 100 42" fill="none" xmlns="http://www.w3.org/2000/svg">
<path d="M44.0066 5.2306C43.5632 4.4917 43.1199 3.75281 42.381 3.30948C41.363 2.7512 40.5091 2.94824 39.8195 3.90059C39.9673 4.14689 40.3121 3.85133 40.5092 4.09763C40.2136 4.24541 40.0166 3.99911 39.8195 3.90059C39.2284 4.49171 39.0806 5.2306 39.1299 6.01875C39.1299 7.64432 39.4747 9.22062 39.8195 10.7969C40.1643 11.0925 40.2629 10.7477 40.3614 10.5506C40.5584 10.058 40.8047 9.58185 41.1003 9.1221C41.2481 8.8758 41.3466 8.48172 41.7899 8.6295C42.0855 8.72802 42.381 8.97432 42.4303 9.3684C42.4303 9.61469 42.4303 9.861 42.5781 10.058C42.7751 10.3043 42.9721 10.5506 43.317 10.4521C43.6618 10.4029 43.514 10.058 43.4647 9.86099C43.4155 9.51617 43.7603 9.3684 43.711 9.07284C43.0214 8.43247 43.3662 7.74283 43.8588 7.2995C44.5977 6.5606 44.3514 5.92023 44.0066 5.2306Z" fill="#D6A89A"/>
<path d="M50.1144 5.2306C50.5577 4.4917 51.001 3.75281 51.7399 3.30948C52.7579 2.7512 53.6118 2.94824 54.3014 3.90059C54.1536 4.14689 53.8088 3.85133 53.6118 4.09763C53.9073 4.24541 54.1044 3.99911 54.3014 3.90059C54.8925 4.49171 55.0403 5.2306 54.9911 6.01875C54.9911 7.64432 54.6462 9.22062 54.3014 10.7969C53.9566 11.0925 53.8581 10.7477 53.7596 10.5506C53.5625 10.058 53.3162 9.58185 53.0207 9.1221C52.8729 8.8758 52.7744 8.48172 52.331 8.6295C52.0355 8.72802 51.7399 8.97432 51.6907 9.3684C51.6907 9.61469 51.6907 9.861 51.5429 10.058C51.3459 10.3043 51.1488 10.5506 50.804 10.4521C50.4592 10.4029 50.6069 10.058 50.6562 9.86099C50.7055 9.51617 50.3606 9.3684 50.4099 9.07284C51.0995 8.43247 48.9321 11.2403 48.4395 10.7477C47.7006 10.058 49.7695 5.92023 50.1144 5.2306Z" fill="#D7AB9D"/>
<path d="M50.904 18.6783C51.1668 18.4813 51.331 18.2186 51.3966 17.8902C51.0518 17.102 50.707 16.3139 50.904 15.3287C50.904 15.1316 50.51 14.245 49.8696 14.8853C49.8696 14.245 50.9041 13.9494 50.5593 13.0627C50.2144 12.6194 49.8696 12.0775 49.1307 12.1761C48.6381 12.1761 48.0963 11.979 47.8007 12.6194C47.5544 13.2105 47.7515 13.7031 48.1455 14.1464C48.244 14.245 48.7367 14.442 48.0963 14.5405C47.7515 14.8853 47.6037 14.5898 47.4559 14.3435C47.3574 14.2778 47.2589 14.245 47.1603 14.245C46.8155 14.3927 46.6677 14.639 46.52 14.9346C46.4707 15.1809 46.4214 15.4272 46.5692 15.6735C46.9633 16.0676 47.4066 16.4124 47.9485 16.3139C48.5889 16.2646 48.9337 16.5602 49.2785 16.9542C47.7514 16.4124 47.1603 16.7079 46.8648 18.0872C46.8648 18.5798 47.3574 18.6783 47.6037 18.9739C47.7022 19.0724 47.8336 19.1381 47.9978 19.1709C48.3426 19.2202 48.6874 19.3187 49.0815 19.1709C49.18 19.1052 49.2457 19.0395 49.2785 18.9739C49.9681 17.9394 49.9681 17.9394 50.904 18.6783Z" fill="#D6A89A"/>
<path d="M49.1783 12.2256C49.6709 12.4227 49.9172 12.9153 50.4098 13.063C50.7054 13.1123 51.0502 13.1123 51.1487 13.5064C51.2472 13.8019 51.5428 13.999 51.7398 14.2453C52.5772 15.1812 52.725 15.1812 53.2669 13.999C53.4146 13.6542 53.7102 13.3093 53.6609 12.866C53.8087 12.0779 53.5624 11.6345 52.6758 11.7823C52.528 11.8316 52.3309 11.733 52.1832 11.733C50.9517 11.5853 50.8532 11.4867 51.0502 10.3538C51.0502 10.2224 51.0338 10.0911 51.0009 9.9597C50.8367 9.72982 50.6233 9.58204 50.3605 9.51636C49.6709 10.2553 48.6857 10.5508 47.9961 11.2404C48.1439 11.8808 48.735 11.9301 49.1783 12.2256Z" fill="#D5A698"/>
<path d="M47.947 19.0241C47.8485 18.9584 47.7664 18.9091 47.7007 18.8763C47.5037 18.7285 47.3559 18.5807 47.1589 18.827C46.7648 19.3689 46.1737 19.6152 45.5825 19.8122C45.3855 19.8615 45.2377 20.0093 45.1885 20.2063C45.3363 20.6989 45.2377 21.2408 45.6811 21.5363C45.9274 21.5363 46.1737 21.4378 46.42 21.4871C46.4692 21.4871 46.2229 21.7334 46.2229 21.8811C46.2229 22.3245 46.5677 22.5215 46.7155 22.8171C46.9618 23.2604 47.3066 23.2111 47.6022 22.9648C47.9963 22.5708 48.4396 22.226 48.6859 21.7334C48.7352 21.29 49.2278 21.093 49.3263 20.6989C49.2278 20.157 48.7844 19.8615 48.5874 19.3689C48.4396 19.1719 48.144 19.1719 47.947 19.0241Z" fill="#C38675"/>
<path d="M53.2682 13.9989C53.1696 14.0974 53.0218 14.1959 52.9726 14.3437C52.677 14.787 52.2337 14.8363 52.0859 14.3437C51.9381 13.8511 51.3963 13.7033 51.2485 13.1122C51.15 12.6196 50.7559 12.6196 50.4111 13.0629C50.4111 13.2107 50.5096 13.457 50.4604 13.457C49.82 13.8018 49.9677 14.6392 49.4259 15.0826C49.2781 15.1811 49.1304 15.3289 49.3274 15.4766C49.5244 15.6737 49.6722 15.4274 49.82 15.3781C50.0663 15.2303 50.0663 14.984 50.2141 14.8363C51.15 15.4766 50.6574 16.1663 50.2141 16.8066C50.6081 17.25 51.3963 17.1515 51.3963 17.8904C52.2829 16.7081 52.9726 15.4766 53.2682 13.9989Z" fill="#D8AC9E"/>
<path d="M43.7114 9.02334C42.9725 9.51593 42.9725 9.51593 43.3173 10.3041C43.0217 10.0085 42.4306 10.0085 42.6276 9.26963C42.7262 8.97408 42.3813 8.48148 41.9873 8.28444C41.5932 8.0874 41.2484 8.13666 41.0513 8.62926C40.7065 9.36815 40.2139 10.0578 39.9676 10.8952C39.8199 11.0922 39.9184 11.3385 40.0661 11.5356C40.1647 11.9297 40.1154 12.4222 40.5095 12.7671C40.7558 12.5208 40.6572 12.2252 40.805 11.9789C41.0513 11.7326 41.0513 11.4371 41.0021 11.043C41.6425 11.4371 42.2828 12.1759 42.5291 10.8459C42.5784 10.5996 42.8247 10.8459 42.9725 10.8459C44.0069 11.0922 44.6965 10.5996 44.7458 9.51593C44.7951 8.87556 44.401 8.62926 43.7606 8.87556C43.7606 8.9084 43.7442 8.95766 43.7114 9.02334Z" fill="#D4A596"/>
<path d="M50.854 9.90956C50.854 10.5007 50.6077 10.9933 50.46 11.4859C51.3466 11.8799 52.2333 12.1755 53.2678 12.0277C53.6618 11.9292 53.5141 12.5696 53.6618 12.8651C54.1052 11.8307 54.3515 10.7962 54.3022 9.66326C54.1544 9.56474 53.9081 9.8603 53.8589 9.46623C53.8096 9.21993 53.514 9.02289 53.2185 8.97363C52.5781 9.46623 53.12 10.4022 52.3811 10.8948C52.2333 10.6977 52.3318 10.3036 52.0363 10.1066C51.6422 9.90956 51.2974 9.71252 50.854 9.90956Z" fill="#D7AB9D"/>
<path d="M49.1789 12.226C48.9819 11.6842 48.3415 11.6349 48.0459 11.1423C48.1116 11.1095 48.1281 11.0602 48.0952 10.9945C48.0624 10.9617 48.0295 10.9453 47.9967 10.9453C47.6026 11.4871 47.5534 12.1768 47.2578 12.7679C46.8145 12.6694 46.7652 12.3246 46.7652 12.029C46.5682 10.896 46.0756 9.86158 45.78 8.72861C45.78 8.58083 45.6322 8.48231 45.5337 8.38379C45.3859 8.53157 45.3859 8.77787 45.3367 8.97491C45.2381 9.66454 45.3367 10.3049 45.78 10.8468C46.0756 11.1916 46.1741 11.5857 46.1741 12.029C46.2233 12.9649 46.6667 13.7038 47.2085 14.3935C47.2742 14.3606 47.3399 14.3442 47.4056 14.3442C47.6026 14.5412 47.8982 14.492 48.1445 14.6398C48.2922 14.5412 48.4893 15.0831 48.5385 14.689C48.5385 14.492 49.0804 14.0486 48.5878 13.9994C47.8982 13.9501 48.0459 13.359 47.8982 13.0634C47.7011 12.6201 48.44 12.6201 48.44 12.226C48.9326 12.2753 48.3908 12.9649 48.9326 12.9157C49.3759 12.8664 49.1789 12.5216 49.1789 12.226Z" fill="#DAB0A3"/>
<path d="M53.268 8.97434C53.5143 9.31916 53.6128 9.95953 54.3025 9.66397C54.5488 9.07286 54.204 8.531 54.1547 7.93989C53.8099 7.10248 53.1695 6.56062 52.2829 6.36359C51.8888 6.06803 51.5932 6.31432 51.2484 6.56062C51.1006 6.75766 50.9036 6.9547 51.0514 7.201C51.1499 7.33236 51.2648 7.43088 51.3962 7.49656C51.8395 7.4473 51.8395 7.89063 52.0858 8.08767C52.5291 8.28471 52.5784 9.0236 53.268 8.97434Z" fill="#D7AB9D"/>
<path d="M51.4442 7.39777C51.3457 7.36493 51.2636 7.31568 51.1979 7.25C50.8531 7.39778 50.459 7.44703 50.1142 7.64407C50.0157 7.74259 49.9172 7.84111 49.8186 7.93963C49.4738 8.48149 49.0797 8.92482 48.7842 9.46668C49.0797 10.5011 49.129 10.5011 49.8186 9.81149C50.0157 9.61446 50.1142 9.46667 50.3605 9.61445C50.459 9.77865 50.6232 9.87717 50.8531 9.91001C51.2472 10.0578 51.5427 10.3533 51.986 10.1563C52.3309 9.76223 52.2324 9.36816 52.0353 8.92482C51.6905 8.48149 51.8875 7.84111 51.4442 7.39777Z" fill="#D7AB9D"/>
<path d="M45.6815 9.02345C45.6158 8.82641 45.5665 8.61295 45.5337 8.38308C45.2874 7.20085 44.647 6.21566 44.0066 5.23047C44.0559 5.47677 44.1052 5.72306 44.1544 5.96936C44.253 6.31418 44.3022 6.60974 43.8589 6.75752C43.6618 6.80678 43.4155 7.10233 43.4648 7.20085C43.6618 8.03826 43.0215 7.69345 42.5781 7.74271C42.9229 8.03827 43.317 8.13678 43.12 8.67864C42.9229 9.26975 43.4155 9.02345 43.7111 9.02345C44.1052 8.67864 44.4992 8.33382 44.6963 7.74271C45.1889 8.08753 44.7948 9.07271 45.6815 9.02345Z" fill="#D9AFA1"/>
<path d="M40.5581 11.832C40.2625 12.1276 40.5581 12.4232 40.5088 12.768C40.7059 13.4576 40.9522 14.098 41.3462 14.7383C41.4119 14.7055 41.4612 14.6891 41.494 14.6891C41.8881 14.6398 42.3314 15.1324 42.7255 14.6398C42.824 14.5742 42.8897 14.4921 42.9225 14.3935C42.8733 13.9995 42.5777 13.7039 42.43 13.3591C42.3314 13.1292 42.1836 12.9322 41.9866 12.768C41.494 12.4724 41.1984 11.9306 40.5581 11.832Z" fill="#C8907F"/>
<path d="M41.3467 14.7381C42.1348 16.7085 43.0708 18.5804 44.45 20.2059C44.5485 20.0582 44.5978 19.9104 44.5485 19.7626C44.45 19.2207 43.9082 18.8267 44.1545 18.0878C44.3023 17.5459 43.5141 17.3489 43.1693 17.0041C42.8245 16.4129 42.4796 15.8711 42.2333 15.28C42.0856 14.8859 41.8393 14.6396 41.3959 14.6889L41.3467 14.7381Z" fill="#C8907F"/>
<path d="M50.9031 18.6781C50.8538 18.1363 50.5583 17.7914 50.0657 17.7422C49.4746 17.7422 49.3761 18.2348 49.179 18.6781C49.1298 18.7766 49.1298 18.9244 49.0312 19.0229C49.2283 19.5155 49.7701 19.6141 50.115 19.9096C50.4598 19.5648 50.7061 19.1215 50.9031 18.6781Z" fill="#D4A495"/>
<path d="M50.3605 9.61429C50.262 9.26948 50.065 9.1217 49.7694 9.41726C49.5724 9.56504 49.5724 9.90985 49.2768 10.1562C49.1126 9.92627 48.9484 9.6964 48.7842 9.46652C48.3409 9.8606 48.1439 10.4025 47.9961 10.9443C48.0289 11.01 48.0453 11.0757 48.0453 11.1413C48.3409 10.6487 48.8335 11.2891 49.1291 10.9443C49.4739 10.4517 50.1142 10.2054 50.3605 9.61429Z" fill="#D7AB9D"/>
<path d="M40.0659 11.5356C40.033 11.3057 40.0002 11.0923 39.9674 10.8952C39.524 9.26968 39.5733 7.59486 39.13 6.01855C38.9329 6.65893 38.9822 7.2993 39.13 7.98894C39.4255 9.17117 39.4255 10.4027 40.0659 11.5356Z" fill="#D8AD9F"/>
<path d="M44.4014 19.7617C44.4014 19.8931 44.4178 20.0408 44.4506 20.205C45.0417 21.1902 45.7806 22.1262 46.7165 22.8158C46.7165 22.4217 46.3225 22.1754 46.3225 21.7814C46.224 21.5515 46.0598 21.4365 45.8299 21.4365C45.288 21.141 45.6821 20.5499 45.3373 20.205C45.1402 20.0573 44.9432 19.9587 44.7462 19.811C44.6476 19.7125 44.4999 19.6632 44.4014 19.7617Z" fill="#C68B7A"/>
<path d="M50.1157 19.9095C50.1157 19.1706 49.4753 19.2198 49.032 19.0228C48.6379 19.0721 48.2931 18.875 47.9482 19.0228C48.0468 19.2198 48.211 19.3348 48.4408 19.3676C48.5886 19.4169 48.5886 19.6632 48.6871 19.6632C49.5245 19.7617 49.426 20.205 49.1797 20.7469C49.032 21.0917 48.5394 21.2395 48.6871 21.7321C49.2782 21.1902 49.7709 20.6484 50.1157 19.9095Z" fill="#CB9484"/>
<path d="M50.1152 7.64426C50.6078 7.79203 51.0512 7.89056 51.199 7.25018C51.1004 7.00389 51.2482 6.80684 51.2482 6.56055C50.7063 6.75759 50.1645 6.95462 50.1152 7.64426Z" fill="#DBB2A5"/>
<path d="M52.2832 6.36328C52.9728 6.80662 53.6625 7.24995 54.1551 7.93959C53.8102 6.75736 53.3669 6.36328 52.2832 6.36328Z" fill="#D7AB9D"/>
<path d="M48.7842 9.46723C49.2768 9.07316 49.8186 8.67908 49.8186 7.94019C49.1783 8.285 48.8827 8.82686 48.7842 9.46723Z" fill="#D7AB9D"/>
<path d="M40.6573 7.44754C40.9529 8.03865 41.544 7.39828 41.8888 7.7431C41.8888 7.7431 42.2829 7.54606 42.0859 7.2505C41.8888 6.95495 41.9381 6.36383 41.3962 6.51161C41.1007 6.61013 40.3618 6.65938 40.6573 7.44754Z" fill="#D8AD9F"/>
<path d="M39.8203 3.90049C39.8696 4.14679 39.9681 4.29456 40.1159 4.44234C40.3129 4.67222 40.5264 4.68864 40.7563 4.4916C40.9533 4.29456 40.9533 4.04827 40.8548 3.80197C40.7563 3.50641 40.51 3.55567 40.2637 3.70344C40.1159 3.7527 39.9681 3.85123 39.8203 3.90049Z" fill="#D3A395"/>
<path d="M40.5593 11.831C41.0026 12.1758 41.2982 12.7177 41.8893 12.8655C42.0371 12.9147 42.1356 12.8162 42.1849 12.6684C42.4312 12.2251 42.7267 12.5699 43.0223 12.6192C43.4656 12.7177 43.6134 12.3729 43.8597 12.1266C44.0567 11.5355 44.6478 11.2399 44.9434 10.7473C45.0912 11.3384 45.0912 11.9295 44.9434 12.5207C44.7463 13.161 44.8449 13.7522 45.2882 14.2447C45.2554 14.4418 45.3046 14.606 45.436 14.7373C45.6823 14.9344 45.9778 15.0822 46.2734 15.1314C46.4212 15.1314 46.569 15.0822 46.6675 14.9344C46.8317 14.7373 47.0123 14.5567 47.2093 14.3925C47.0615 13.9492 47.1601 13.4073 46.6182 13.0625C46.4704 13.0133 46.5197 12.5699 46.4704 12.3236C46.4212 11.634 46.4212 10.9444 45.7808 10.4025C45.5345 10.2055 45.3867 9.51583 45.6823 9.02323C45.3375 8.82619 45.1897 8.53063 45.1897 8.13656C45.2389 7.69322 44.8449 7.54544 44.6971 7.15137C44.5493 7.89026 43.9582 8.3336 43.7119 9.02323C44.6971 9.02323 44.6971 9.02323 44.2537 9.86064C43.6134 10.9444 43.6134 10.9444 42.3819 10.2547C42.1356 10.501 42.0863 10.7966 42.2834 11.0921C42.3326 11.2399 42.2341 11.3384 42.0863 11.437C41.9386 11.5355 41.84 11.4369 41.7415 11.3384C41.643 11.1414 41.4952 10.9936 41.3474 10.8458C41.1011 10.5995 40.8056 10.5995 40.5593 10.7966C40.2637 11.0921 40.6578 11.1906 40.8056 11.3384C41.1996 11.7325 40.51 11.5847 40.5593 11.831Z" fill="#D6A99B"/>
<path d="M46.2237 15.033C46.0595 14.7703 45.8297 14.6718 45.5341 14.7375C44.5489 14.7867 44.9923 15.6734 44.6475 16.1167C44.6475 16.7079 45.0415 17.0527 45.3864 17.4468C45.5834 17.6438 45.8297 17.8408 46.076 17.9886C46.3715 18.0379 46.6178 18.1856 46.9134 18.1364C47.6523 17.9886 47.2089 17.5453 47.1597 17.1019C47.9971 16.9542 48.8838 16.9542 49.6227 17.1512C49.7704 17.0527 49.7704 17.0034 49.6719 16.9542C49.1793 16.363 48.6375 15.8212 47.7015 16.0675C47.2582 16.2153 47.0612 15.5256 46.5686 15.6242C46.3223 15.8704 46.5686 16.3138 46.076 16.6586C46.6178 16.0675 45.7311 15.5256 46.2237 15.033Z" fill="#D8AD9F"/>
<path d="M46.9129 18.1367C46.7159 17.9068 46.4696 17.8083 46.174 17.8411C45.9277 17.8904 46.0263 18.8263 45.5337 18.0874C45.3859 17.8904 45.0903 17.9396 44.8933 18.1859C44.6963 18.383 44.3514 18.5308 44.45 18.9248C44.5977 19.3189 44.7455 19.6145 45.1888 19.713C45.3859 19.7622 45.6814 19.4667 45.7307 19.91C46.4203 20.1071 46.7652 19.2696 47.4055 19.2696C47.3563 19.0233 47.1592 18.6785 47.7011 18.8756C47.6518 18.383 47.1592 18.4322 46.9129 18.1367Z" fill="#C68B7A"/>
<path d="M46.2235 15.0341C45.7309 15.1326 45.2876 15.2311 45.9279 15.8222C46.0757 15.97 46.2728 16.2163 45.8787 16.4626C45.5339 16.7089 45.9772 16.9059 46.125 17.1522C46.4698 16.6596 46.8146 16.2163 46.5683 15.6252C46.6176 15.3789 46.7161 15.1818 46.6668 14.9355C46.5355 14.9684 46.3877 15.0012 46.2235 15.0341Z" fill="#DBB1A4"/>
<path d="M48.1446 14.6395C48.0461 14.1961 47.7012 14.2946 47.4057 14.3439C47.4057 14.3767 47.4057 14.4096 47.4057 14.4424C47.5042 14.6887 47.1594 15.132 47.7012 15.1813C48.1938 15.2798 47.7998 14.6887 48.1446 14.6395Z" fill="#D8AD9F"/>
<path d="M49.1793 20.7474C49.2778 20.5997 49.4256 20.4519 49.5734 20.2548C49.6719 20.0578 49.9182 19.8608 49.7212 19.6145C49.5241 19.4174 49.2778 19.3189 49.0808 19.5159C48.7852 19.7622 48.6374 19.3682 48.4404 19.3682C48.3911 19.9593 48.9823 20.2548 49.1793 20.7474Z" fill="#C78D7D"/>
<path d="M45.7311 19.9093C45.764 19.8437 45.7968 19.7944 45.8297 19.7616C45.8789 19.6138 46.2238 19.663 46.1252 19.4168C46.0267 19.269 45.8297 19.269 45.6819 19.3675C45.5177 19.4332 45.3699 19.4989 45.2386 19.5645C44.9923 19.6631 44.746 19.663 44.6475 19.9093C44.746 20.4019 45.0415 20.3034 45.3371 20.2049C45.3863 20.0079 45.5341 19.9586 45.7311 19.9093Z" fill="#C0816F"/>
<path d="M45.8291 21.4367C45.9276 21.6337 46.0918 21.7487 46.3217 21.7815C46.568 21.683 46.9621 21.7323 46.8143 21.2889C46.765 20.9441 46.5187 21.3382 46.3217 21.2397C46.1247 21.1904 45.9276 21.1411 45.8291 21.4367Z" fill="#BE7E6C"/>
<path d="M51.7892 9.12266C52.134 9.41821 51.9862 9.76303 51.9862 10.1571C52.1833 10.5512 51.8384 11.1423 52.3803 11.4871C53.0699 10.7975 53.1192 9.86155 53.267 8.97488C52.7744 8.72859 52.7744 8.03895 52.1833 7.94043C51.2966 8.08821 52.0355 8.77784 51.7892 9.12266Z" fill="#D7AB9D"/>
<path d="M51.7898 9.12183C52.0854 8.77701 51.5928 8.1859 52.1839 7.9396C51.8883 7.84108 52.0854 7.00367 51.445 7.39774C51.3957 7.98886 51.5435 8.57997 51.7898 9.12183Z" fill="#D7AB9D"/>
<path d="M45.386 14.0974C45.4517 14.1303 45.5174 14.1467 45.583 14.1467C45.7308 14.1467 45.8293 14.0482 45.7308 13.9497C45.4845 13.8511 45.2382 13.7526 44.8934 13.6049C45.4845 13.1615 44.7949 12.2748 45.5338 11.93C45.0905 11.4374 45.2382 10.7478 45.1397 10.1074C44.7949 10.8956 43.8097 11.1911 43.6619 12.0778C43.9082 12.7182 42.9723 13.1123 43.4649 13.9004C42.9723 13.5063 42.6767 13.2108 42.2334 13.4571C42.2827 13.8511 42.6275 14.0975 42.8245 14.393C42.7753 14.8363 43.0708 15.0334 43.3171 15.2797C43.6619 15.4767 43.9575 15.8215 44.4008 15.6738C44.7949 15.1812 45.1397 14.6393 45.386 14.0974Z" fill="#D9AEA0"/>
<path d="M41.3955 14.6891C42.1837 15.0832 42.1344 16.0191 42.627 16.6103C42.7748 16.758 42.8733 17.0043 42.9718 17.2014C43.5137 17.1521 43.6122 16.8073 43.6122 16.364C43.5629 16.1669 43.4644 15.9206 43.3659 15.6743C43.2674 15.5758 43.1524 15.543 43.0211 15.5758C42.9225 15.6251 42.8733 15.7236 42.8733 15.8221C42.824 15.9206 42.7748 15.8714 42.824 15.7728C42.8733 15.428 42.8733 15.1325 42.8733 14.8369C42.824 14.6891 42.7748 14.5413 42.627 14.4428C42.43 14.5413 42.2822 14.8862 41.9866 14.4921C41.6911 14.0488 41.3955 14.1473 41.3955 14.6891Z" fill="#C78E7E"/>
<path d="M42.2325 13.4574C42.8236 13.5559 43.2177 13.9992 43.6611 14.5411C43.8581 14.0978 43.5133 13.8515 43.5625 13.5559C43.5625 13.3589 43.4147 13.0633 43.7103 12.9648C44.6462 12.5707 43.9074 12.3244 43.6611 12.0781C43.4148 12.0781 43.464 12.62 43.0699 12.4229C42.7744 12.5707 42.4295 12.6692 42.0355 12.62C41.9698 12.7185 41.9205 12.8006 41.8877 12.8663C41.9862 13.0633 42.1833 13.2111 42.2325 13.4574Z" fill="#DCB3A5"/>
<path d="M43.1205 15.6733C43.1862 15.739 43.2683 15.7883 43.3668 15.8211C43.8102 15.6733 43.6131 15.427 43.4161 15.1807C43.2191 14.918 43.022 14.6553 42.825 14.3926C42.7593 14.4254 42.6936 14.4418 42.6279 14.4418C42.6608 14.606 42.6936 14.7538 42.7265 14.8852C42.5951 15.2464 42.7264 15.5091 43.1205 15.6733Z" fill="#C38674"/>
<path d="M43.4653 16.2644C43.5145 16.6585 43.2682 16.954 42.9727 17.2003C43.3175 17.5944 44.1549 17.5944 44.0071 18.4318C43.8101 18.4811 43.7115 18.2348 43.4653 18.3826C43.7608 18.8423 44.0728 19.3021 44.4012 19.7618C44.4669 19.8275 44.549 19.8768 44.6475 19.9096C44.8445 19.8604 45.1401 19.9096 45.2386 19.5648C44.8445 19.4663 44.7953 19.0722 44.6475 18.7766C44.549 18.5796 44.6475 18.5796 44.8938 18.5304C45.4849 18.4318 45.5341 18.4318 46.4701 19.0722C46.8641 18.5304 45.6819 18.3826 46.1745 17.8407C45.9775 17.6765 45.7969 17.5123 45.6327 17.3481C44.943 17.2003 44.6968 16.6585 44.4012 16.1659C44.0071 15.5255 43.6623 15.5255 43.4653 16.2644Z" fill="#C48877"/>
<path d="M45.3862 14.0977C44.9429 14.541 44.401 14.8858 44.401 15.6247C44.3518 15.9203 44.4995 16.068 44.7458 16.2158C45.0907 15.9695 45.1399 15.5754 45.1892 15.1814C45.1892 14.9351 45.2877 14.7873 45.534 14.738C45.5012 14.541 45.4519 14.3275 45.3862 14.0977Z" fill="#DBB2A5"/>
<path d="M42.0366 12.6199C42.7262 13.3096 42.7262 13.3096 43.0711 12.4229C42.9233 12.1766 42.677 12.3244 42.5292 12.2259C41.8888 11.7825 41.9873 12.1766 42.0366 12.6199Z" fill="#D9AEA0"/>
<path d="M44.7452 16.2161C44.6959 15.9698 44.5482 15.822 44.4004 15.625C44.072 15.4608 43.7436 15.313 43.4152 15.1816C43.4645 15.3787 43.6122 15.625 43.3659 15.822C43.1689 16.0191 43.2017 16.1668 43.4644 16.2653C43.5958 16.134 43.7436 15.9862 43.9078 15.822C44.4004 16.4624 44.4497 17.4968 45.6319 17.3491C45.2378 17.0042 44.9915 16.6102 44.7452 16.2161Z" fill="#C8907F"/>
<path d="M43.1205 15.6729C42.9234 15.4266 42.7264 15.1803 42.7264 14.8848C42.3816 15.3281 42.7757 15.7714 42.7757 16.2148C43.0712 16.067 42.8742 15.7714 43.1205 15.6729Z" fill="#C8907F"/>
<path d="M10.176 40V17.6H14.272V36.8H24.192V40H10.176ZM32.8214 40.384C31.4561 40.384 30.3361 40.1707 29.4614 39.744C28.5868 39.296 27.9361 38.7093 27.5094 37.984C27.0828 37.2587 26.8694 36.4587 26.8694 35.584C26.8694 34.112 27.4454 32.9173 28.5974 32C29.7494 31.0827 31.4774 30.624 33.7814 30.624H37.8134V30.24C37.8134 29.152 37.5041 28.352 36.8854 27.84C36.2668 27.328 35.4988 27.072 34.5814 27.072C33.7494 27.072 33.0241 27.2747 32.4054 27.68C31.7868 28.064 31.4028 28.64 31.2534 29.408H27.2534C27.3601 28.256 27.7441 27.2533 28.4054 26.4C29.0881 25.5467 29.9628 24.896 31.0294 24.448C32.0961 23.9787 33.2908 23.744 34.6134 23.744C36.8748 23.744 38.6561 24.3093 39.9574 25.44C41.2588 26.5707 41.9094 28.1707 41.9094 30.24V40H38.4214L38.0374 37.44C37.5681 38.2933 36.9068 38.9973 36.0534 39.552C35.2214 40.1067 34.1441 40.384 32.8214 40.384ZM33.7494 37.184C34.9228 37.184 35.8294 36.8 36.4694 36.032C37.1308 35.264 37.5468 34.3147 37.7174 33.184H34.2294C33.1414 33.184 32.3628 33.3867 31.8934 33.792C31.4241 34.176 31.1894 34.656 31.1894 35.232C31.1894 35.8507 31.4241 36.3307 31.8934 36.672C32.3628 37.0133 32.9814 37.184 33.7494 37.184ZM45.4626 40V24.128H49.0786L49.4306 26.272C49.9426 25.504 50.6146 24.896 51.4466 24.448C52.3 23.9787 53.2813 23.744 54.3906 23.744C56.844 23.744 58.5826 24.6933 59.6066 26.592C60.1826 25.7173 60.9506 25.024 61.9106 24.512C62.892 24 63.9586 23.744 65.1106 23.744C67.18 23.744 68.7693 24.3627 69.8786 25.6C70.988 26.8373 71.5426 28.6507 71.5426 31.04V40H67.4466V31.424C67.4466 30.0587 67.18 29.0133 66.6466 28.288C66.1346 27.5627 65.3346 27.2 64.2466 27.2C63.1373 27.2 62.2413 27.6053 61.5586 28.416C60.8973 29.2267 60.5666 30.3573 60.5666 31.808V40H56.4706V31.424C56.4706 30.0587 56.204 29.0133 55.6706 28.288C55.1373 27.5627 54.316 27.2 53.2066 27.2C52.1186 27.2 51.2333 27.6053 50.5506 28.416C49.8893 29.2267 49.5586 30.3573 49.5586 31.808V40H45.4626ZM80.5478 40.384C79.1825 40.384 78.0625 40.1707 77.1878 39.744C76.3132 39.296 75.6625 38.7093 75.2358 37.984C74.8092 37.2587 74.5958 36.4587 74.5958 35.584C74.5958 34.112 75.1718 32.9173 76.3238 32C77.4758 31.0827 79.2038 30.624 81.5078 30.624H85.5398V30.24C85.5398 29.152 85.2305 28.352 84.6118 27.84C83.9932 27.328 83.2252 27.072 82.3078 27.072C81.4758 27.072 80.7505 27.2747 80.1318 27.68C79.5132 28.064 79.1292 28.64 78.9798 29.408H74.9798C75.0865 28.256 75.4705 27.2533 76.1318 26.4C76.8145 25.5467 77.6892 24.896 78.7558 24.448C79.8225 23.9787 81.0172 23.744 82.3398 23.744C84.6012 23.744 86.3825 24.3093 87.6838 25.44C88.9852 26.5707 89.6358 28.1707 89.6358 30.24V40H86.1478L85.7638 37.44C85.2945 38.2933 84.6332 38.9973 83.7798 39.552C82.9478 40.1067 81.8705 40.384 80.5478 40.384ZM81.4758 37.184C82.6492 37.184 83.5558 36.8 84.1958 36.032C84.8572 35.264 85.2732 34.3147 85.4438 33.184H81.9558C80.8678 33.184 80.0892 33.3867 79.6198 33.792C79.1505 34.176 78.9158 34.656 78.9158 35.232C78.9158 35.8507 79.1505 36.3307 79.6198 36.672C80.0892 37.0133 80.7078 37.184 81.4758 37.184Z" fill="black"/>
</svg>
