<svg width="16" height="18" viewBox="0 0 16 18" fill="none" xmlns="http://www.w3.org/2000/svg">
<g id="Icon">
<path id="Vector" fill-rule="evenodd" clip-rule="evenodd" d="M15.9552 4.97397C16.0481 5.30802 15.9953 5.66289 15.8085 5.96054C15.6217 6.25819 15.3161 6.47423 14.9591 6.56114C13.7041 6.86699 12.5633 7.10126 11.4781 7.26135V11.4105L12.1633 16.5364C12.2075 16.8656 12.1156 17.1981 11.9065 17.466C11.6974 17.7339 11.3868 17.917 11.0383 17.9779C10.6897 18.0388 10.3294 17.9729 10.031 17.7936C9.73268 17.6144 9.51874 17.3353 9.43293 17.0134L8.04167 11.8075C8.01401 11.7042 8 11.5982 7.99993 11.4918C7.99986 11.5982 7.98584 11.7042 7.95819 11.8075L6.56692 17.0134C6.48112 17.3353 6.26718 17.6144 5.96881 17.7936C5.67044 17.9729 5.31017 18.0388 4.96159 17.9779C4.61302 17.917 4.30245 17.7339 4.09335 17.466C3.88425 17.1981 3.7924 16.8656 3.83656 16.5364L4.52176 11.4105V7.24443C3.44005 7.08304 2.30408 6.85398 1.05681 6.56505C0.698614 6.48203 0.390343 6.26931 0.199811 5.97367C0.00927895 5.67803 -0.0479063 5.3237 0.0408351 4.98861C0.129576 4.65353 0.356975 4.36516 0.673007 4.18692C0.989038 4.00868 1.36781 3.95518 1.72601 4.0382C4.25672 4.62517 6.14954 4.91345 8.00549 4.92061C9.85727 4.92712 11.7445 4.65446 14.2578 4.0421C14.4347 3.99899 14.6189 3.98889 14.7999 4.01239C14.981 4.03589 15.1553 4.09253 15.3129 4.17907C15.4705 4.26561 15.6084 4.38035 15.7186 4.51674C15.8288 4.65313 15.9092 4.8085 15.9552 4.97397Z" fill="#9DAEE7"/>
<circle id="Ellipse 40" cx="8" cy="2" r="2" fill="#9DAEE7"/>
</g>
</svg>
