<svg width="41" height="40" viewBox="0 0 41 40" fill="none" xmlns="http://www.w3.org/2000/svg">
<path d="M15.5234 29C20.494 29 24.5234 24.9706 24.5234 20C24.5234 15.0294 20.494 11 15.5234 11C10.5529 11 6.52344 15.0294 6.52344 20C6.52344 24.9706 10.5529 29 15.5234 29Z" fill="#EB001B"/>
<path d="M25.8086 29C30.7792 29 34.8086 24.9706 34.8086 20C34.8086 15.0294 30.7792 11 25.8086 11C20.838 11 16.8086 15.0294 16.8086 20C16.8086 24.9706 20.838 29 25.8086 29Z" fill="#F79E1B"/>
<path d="M24.5229 20.0004C24.5229 16.9147 22.98 14.2147 20.6657 12.6719C18.3515 14.3433 16.8086 17.0433 16.8086 20.0004C16.8086 22.9576 18.3515 25.7862 20.6657 27.329C22.98 25.7862 24.5229 23.0862 24.5229 20.0004Z" fill="#FF5F00"/>
</svg>
