<svg xmlns="http://www.w3.org/2000/svg" width="64" height="64" viewBox="0 0 64 64" fill="none">
    <path d="M50.1378 32.3346L34.0875 16.2844C33.8483 16.0432 33.5635 15.852 33.2497 15.7219C32.9359 15.5917 32.5994 15.5253 32.2596 15.5264H17.2793C16.9364 15.5264 16.6075 15.6626 16.365 15.9051C16.1226 16.1475 15.9863 16.4764 15.9863 16.8193V31.7997C15.9853 32.1394 16.0517 32.4759 16.1818 32.7897C16.312 33.1035 16.5032 33.3883 16.7443 33.6276L32.7946 49.6779C33.0347 49.918 33.3198 50.1086 33.6336 50.2386C33.9474 50.3686 34.2837 50.4355 34.6233 50.4355C34.9629 50.4355 35.2993 50.3686 35.613 50.2386C35.9268 50.1086 36.2119 49.918 36.452 49.6779L50.1378 35.9921C50.378 35.7519 50.5685 35.4668 50.6985 35.1531C50.8285 34.8393 50.8954 34.503 50.8954 34.1633C50.8954 33.8237 50.8285 33.4874 50.6985 33.1736C50.5685 32.8599 50.378 32.5748 50.1378 32.3346ZM34.6225 47.85L18.5722 31.7997V18.1123H32.2596L48.3099 34.1625L34.6225 47.85ZM26.3299 23.9305C26.3299 24.3141 26.2161 24.6891 26.003 25.008C25.7899 25.3269 25.487 25.5755 25.1327 25.7223C24.7783 25.8691 24.3883 25.9075 24.0121 25.8327C23.6359 25.7578 23.2903 25.5731 23.0191 25.3019C22.7479 25.0307 22.5632 24.6851 22.4883 24.3089C22.4135 23.9327 22.4519 23.5427 22.5987 23.1883C22.7455 22.8339 22.9941 22.5311 23.313 22.3179C23.6319 22.1048 24.0069 21.9911 24.3905 21.9911C24.9048 21.9911 25.3981 22.1954 25.7618 22.5591C26.1256 22.9228 26.3299 23.4161 26.3299 23.9305Z" fill="#080709"/>
    </svg>
