<svg width="64" height="64" viewBox="0 0 64 64" fill="none" xmlns="http://www.w3.org/2000/svg">
<g id="price tag">
<path id="Vector" d="M50.1383 32.3348L34.088 16.2845C33.8488 16.0433 33.564 15.8521 33.2502 15.722C32.9364 15.5919 32.5998 15.5254 32.2601 15.5265H17.2798C16.9369 15.5265 16.608 15.6627 16.3655 15.9052C16.1231 16.1477 15.9868 16.4765 15.9868 16.8194V31.7998C15.9857 32.1395 16.0522 32.4761 16.1823 32.7899C16.3124 33.1037 16.5037 33.3885 16.7448 33.6277L32.7951 49.678C33.0352 49.9182 33.3203 50.1087 33.6341 50.2387C33.9479 50.3687 34.2842 50.4356 34.6238 50.4356C34.9634 50.4356 35.2997 50.3687 35.6135 50.2387C35.9273 50.1087 36.2124 49.9182 36.4525 49.678L50.1383 35.9922C50.3785 35.7521 50.569 35.467 50.699 35.1532C50.829 34.8394 50.8959 34.5031 50.8959 34.1635C50.8959 33.8238 50.829 33.4875 50.699 33.1738C50.569 32.86 50.3785 32.5749 50.1383 32.3348ZM34.623 47.8501L18.5727 31.7998V18.1124H32.2601L48.3104 34.1627L34.623 47.8501ZM26.3304 23.9306C26.3304 24.3142 26.2166 24.6892 26.0035 25.0081C25.7904 25.327 25.4875 25.5756 25.1331 25.7224C24.7788 25.8692 24.3888 25.9076 24.0126 25.8328C23.6364 25.758 23.2908 25.5732 23.0196 25.302C22.7484 25.0308 22.5636 24.6852 22.4888 24.309C22.414 23.9328 22.4524 23.5428 22.5992 23.1885C22.746 22.8341 22.9945 22.5312 23.3135 22.3181C23.6324 22.105 24.0074 21.9912 24.391 21.9912C24.9053 21.9912 25.3986 22.1955 25.7623 22.5593C26.126 22.923 26.3304 23.4163 26.3304 23.9306Z" fill="#ECB761"/>
</g>
</svg>
