<svg width="12" height="12" viewBox="0 0 12 12" fill="none" xmlns="http://www.w3.org/2000/svg">
    <rect width="12" height="12" rx="6" fill="#FCFBFE" />
    <path fill-rule="evenodd" clip-rule="evenodd"
        d="M9.1105 5.26367C9.18615 5.245 9.25723 5.21209 9.31964 5.16682C9.38206 5.12155 9.43458 5.06482 9.47418 4.9999C9.51378 4.93497 9.53969 4.86313 9.55041 4.78851C9.56113 4.71388 9.55644 4.63795 9.53663 4.56508C9.51681 4.49221 9.48226 4.42384 9.43495 4.3639C9.38765 4.30397 9.32853 4.25365 9.26099 4.21584C9.19345 4.17803 9.11883 4.15348 9.04142 4.1436C8.96401 4.13373 8.88534 4.13872 8.80994 4.15828C7.68201 4.4437 6.83421 4.57141 6.00121 4.56798C5.16644 4.56484 4.31627 4.42999 3.18124 4.15657C3.02884 4.11982 2.86755 4.14299 2.73285 4.22097C2.59815 4.29896 2.50108 4.42537 2.46299 4.57241C2.4249 4.71945 2.44891 4.87506 2.52974 5.00502C2.61057 5.13498 2.7416 5.22863 2.894 5.26538C3.44182 5.39738 3.94079 5.50195 4.41607 5.5768C4.32249 6.17678 3.82501 7.16502 3.53806 7.69815C3.44212 7.877 3.55761 8.0967 3.7643 8.12213C5.52238 8.33698 6.63432 8.34269 8.25204 8.12556C8.4534 8.09842 8.56593 7.88614 8.47532 7.71043C8.19578 7.17017 7.69355 6.14735 7.58695 5.58394C8.06193 5.50966 8.56149 5.40224 9.1105 5.26367ZM4.51823 8.57554V9.5715C4.51827 9.67538 4.55741 9.7757 4.62837 9.85382C4.69933 9.93194 4.79728 9.98253 4.90401 9.99619C5.01074 10.0098 5.11898 9.98564 5.20859 9.92807C5.29821 9.8705 5.3631 9.78349 5.3912 9.68321L5.66956 8.68811C5.28407 8.66921 4.89981 8.63164 4.51823 8.57554ZM6.62366 8.68611L6.90261 9.68321C6.93071 9.78349 6.9956 9.8705 7.08522 9.92807C7.17483 9.98564 7.28307 10.0098 7.3898 9.99619C7.49653 9.98253 7.59448 9.93194 7.66544 9.85382C7.7364 9.7757 7.77554 9.67538 7.77558 9.5715V8.57154C7.39372 8.62734 7.0093 8.66577 6.62366 8.68611Z"
        fill="#EB92B9" />
    <circle cx="6.00212" cy="2.88884" r="0.888838" fill="#EB92B9" />
</svg>
    