<svg width="20" height="20" viewBox="0 0 20 20" fill="none" xmlns="http://www.w3.org/2000/svg">
<path fill-rule="evenodd" clip-rule="evenodd" d="M17.9552 5.97397C18.0481 6.30802 17.9953 6.66289 17.8085 6.96054C17.6217 7.25819 17.3161 7.47423 16.9591 7.56114C15.7041 7.86699 14.5633 8.10126 13.4781 8.26135V12.4105L14.1633 17.5364C14.2075 17.8656 14.1156 18.1981 13.9065 18.466C13.6974 18.7339 13.3868 18.917 13.0383 18.9779C12.6897 19.0388 12.3294 18.9729 12.031 18.7936C11.7327 18.6144 11.5187 18.3353 11.4329 18.0134L10.0417 12.8075C10.014 12.7042 10 12.5982 9.99993 12.4918C9.99986 12.5982 9.98584 12.7042 9.95819 12.8075L8.56692 18.0134C8.48112 18.3353 8.26718 18.6144 7.96881 18.7936C7.67044 18.9729 7.31017 19.0388 6.96159 18.9779C6.61302 18.917 6.30245 18.7339 6.09335 18.466C5.88425 18.1981 5.7924 17.8656 5.83656 17.5364L6.52176 12.4105V8.24443C5.44005 8.08304 4.30408 7.85398 3.05681 7.56505C2.69861 7.48203 2.39034 7.26931 2.19981 6.97367C2.00928 6.67803 1.95209 6.3237 2.04084 5.98861C2.12958 5.65353 2.35698 5.36516 2.67301 5.18692C2.98904 5.00868 3.36781 4.95518 3.72601 5.0382C6.25672 5.62517 8.14954 5.91345 10.0055 5.92061C11.8573 5.92712 13.7445 5.65446 16.2578 5.0421C16.4347 4.99899 16.6189 4.98889 16.7999 5.01239C16.981 5.03589 17.1553 5.09253 17.3129 5.17907C17.4705 5.26561 17.6084 5.38035 17.7186 5.51674C17.8288 5.65313 17.9092 5.8085 17.9552 5.97397Z" fill="#9DAEE7"/>
<circle cx="10" cy="3" r="2" fill="#9DAEE7"/>
</svg>
