<svg width="12" height="12" viewBox="0 0 12 12" fill="none" xmlns="http://www.w3.org/2000/svg">
<rect width="12" height="12" rx="6" fill="#FCFBFE"/>
<path fill-rule="evenodd" clip-rule="evenodd" d="M9.53651 4.21022C9.57779 4.35868 9.55434 4.51641 9.47131 4.6487C9.38828 4.78098 9.25248 4.877 9.09378 4.91563C8.53604 5.05156 8.029 5.15568 7.54669 5.22683V7.0709L7.85122 9.34909C7.87085 9.49537 7.83003 9.64314 7.73709 9.76222C7.64416 9.88129 7.50613 9.96267 7.35121 9.98973C7.19629 10.0168 7.03616 9.9875 6.90355 9.90784C6.77095 9.82817 6.67586 9.70414 6.63773 9.56109L6.01939 7.24732C6.0071 7.20145 6.00087 7.15434 6.00084 7.10705C6.00081 7.15434 5.99458 7.20145 5.98229 7.24732L5.36395 9.56109C5.32581 9.70414 5.23073 9.82817 5.09812 9.90784C4.96551 9.9875 4.80539 10.0168 4.65046 9.98973C4.49554 9.96267 4.35751 9.88129 4.26458 9.76222C4.17165 9.64314 4.13082 9.49537 4.15045 9.34909L4.45498 7.0709V5.21931C3.97422 5.14758 3.46935 5.04578 2.915 4.91736C2.75581 4.88047 2.6188 4.78592 2.53412 4.65453C2.44944 4.52313 2.42402 4.36565 2.46346 4.21673C2.5029 4.0678 2.60397 3.93964 2.74443 3.86042C2.88488 3.7812 3.05323 3.75743 3.21243 3.79432C4.33719 4.0552 5.17844 4.18332 6.00331 4.1865C6.82632 4.1894 7.6651 4.06821 8.78213 3.79606C8.86074 3.77689 8.94261 3.77241 9.02307 3.78285C9.10352 3.7933 9.18099 3.81847 9.25105 3.85693C9.32111 3.89539 9.38237 3.94639 9.43135 4.00701C9.48033 4.06763 9.51607 4.13668 9.53651 4.21022Z" fill="#9DAEE7"/>
<circle cx="6.00022" cy="2.88889" r="0.888889" fill="#9DAEE7"/>
</svg>
