<svg xmlns="http://www.w3.org/2000/svg" width="64" height="64" viewBox="0 0 64 64" fill="none">
    <path
        d="M51.3869 16.4924L41.976 11.3615C41.7628 11.2435 41.5233 11.181 41.2797 11.1797H35.4615C35.0757 11.1797 34.7057 11.3329 34.4329 11.6057C34.1602 11.8785 34.0069 12.2485 34.0069 12.6342C34.0069 13.7915 33.5472 14.9014 32.7288 15.7198C31.9105 16.5381 30.8006 16.9979 29.6433 16.9979C28.486 16.9979 27.3761 16.5381 26.5577 15.7198C25.7394 14.9014 25.2797 13.7915 25.2797 12.6342C25.2797 12.2485 25.1264 11.8785 24.8536 11.6057C24.5808 11.3329 24.2109 11.1797 23.8251 11.1797H18.0069C17.7626 11.1807 17.5225 11.2432 17.3087 11.3615L7.89965 16.4924C7.22892 16.8469 6.72613 17.4528 6.50152 18.1775C6.27691 18.9021 6.34882 19.6862 6.70147 20.3579L10.2051 27.0506C10.4599 27.5318 10.8417 27.9339 11.3091 28.2131C11.7765 28.4923 12.3116 28.638 12.856 28.6342H16.5524V43.1797C16.5524 43.9512 16.8589 44.6912 17.4044 45.2367C17.95 45.7823 18.6899 46.0888 19.4615 46.0888H39.8251C40.5966 46.0888 41.3366 45.7823 41.8821 45.2367C42.4277 44.6912 42.7342 43.9512 42.7342 43.1797V28.6342H46.4324C46.9768 28.638 47.5119 28.4923 47.9793 28.2131C48.4467 27.9339 48.8285 27.5318 49.0833 27.0506L52.5869 20.3579C52.9394 19.686 53.0111 18.9017 52.7861 18.177C52.5611 17.4524 52.058 16.8466 51.3869 16.4924ZM12.856 25.7251C12.8291 25.7264 12.8027 25.718 12.7815 25.7015L9.29601 19.0451L16.5524 15.0851V25.7251H12.856ZM39.8251 43.1797H19.4615V14.0888H22.516C22.8516 15.7309 23.7441 17.2067 25.0424 18.2666C26.3408 19.3264 27.9654 19.9053 29.6415 19.9053C31.3175 19.9053 32.9421 19.3264 34.2405 18.2666C35.5389 17.2067 36.4313 15.7309 36.7669 14.0888H39.8251V43.1797ZM46.5069 25.6997C46.4969 25.7088 46.4851 25.7157 46.4723 25.7201C46.4594 25.7244 46.4459 25.7262 46.4324 25.7251H42.7342V15.0851L49.9924 19.0451L46.5069 25.6997Z"
        fill="#080709" />
</svg>