<svg width="64" height="64" viewBox="0 0 64 64" fill="none" xmlns="http://www.w3.org/2000/svg">
<g id="shirt">
<path id="Vector" d="M51.3867 16.4929L41.9758 11.362C41.7625 11.244 41.5231 11.1815 41.2794 11.1802H35.4612C35.0755 11.1802 34.7055 11.3334 34.4327 11.6062C34.1599 11.879 34.0067 12.249 34.0067 12.6347C34.0067 13.792 33.5469 14.9019 32.7286 15.7203C31.9103 16.5386 30.8004 16.9984 29.643 16.9984C28.4857 16.9984 27.3758 16.5386 26.5575 15.7203C25.7391 14.9019 25.2794 13.792 25.2794 12.6347C25.2794 12.249 25.1262 11.879 24.8534 11.6062C24.5806 11.3334 24.2106 11.1802 23.8249 11.1802H18.0067C17.7624 11.1812 17.5223 11.2437 17.3085 11.362L7.89941 16.4929C7.22868 16.8474 6.72589 17.4533 6.50128 18.178C6.27667 18.9026 6.34857 19.6867 6.70122 20.3584L10.2049 27.0511C10.4596 27.5323 10.8415 27.9343 11.3089 28.2136C11.7763 28.4928 12.3113 28.6385 12.8558 28.6347H16.5521V43.1802C16.5521 43.9517 16.8586 44.6917 17.4042 45.2372C17.9497 45.7828 18.6897 46.0893 19.4612 46.0893H39.8249C40.5964 46.0893 41.3363 45.7828 41.8819 45.2372C42.4275 44.6917 42.734 43.9517 42.734 43.1802V28.6347H46.4321C46.9766 28.6385 47.5116 28.4928 47.979 28.2136C48.4464 27.9343 48.8283 27.5323 49.083 27.0511L52.5867 20.3584C52.9392 19.6865 53.0108 18.9022 52.7859 18.1775C52.5609 17.4529 52.0577 16.847 51.3867 16.4929ZM12.8558 25.7256C12.8289 25.7269 12.8025 25.7185 12.7812 25.702L9.29577 19.0456L16.5521 15.0856V25.7256H12.8558ZM39.8249 43.1802H19.4612V14.0893H22.5158C22.8514 15.7314 23.7438 17.2072 25.0422 18.267C26.3406 19.3269 27.9652 19.9058 29.6412 19.9058C31.3173 19.9058 32.9419 19.3269 34.2403 18.267C35.5386 17.2072 36.4311 15.7314 36.7667 14.0893H39.8249V43.1802ZM46.5067 25.7002C46.4966 25.7092 46.4848 25.7162 46.472 25.7206C46.4592 25.7249 46.4456 25.7267 46.4321 25.7256H42.734V15.0856L49.9921 19.0456L46.5067 25.7002Z" fill="#ECB761"/>
</g>
</svg>
