<svg xmlns="http://www.w3.org/2000/svg" width="64" height="64" viewBox="0 0 64 64" fill="none">
    <path d="M13.4637 48.8274C13.1173 49.4245 13.3205 50.1894 13.9177 50.5359C14.5149 50.8823 15.2798 50.679 15.6262 50.0818L13.4637 48.8274ZM50.4262 50.0822C50.7726 50.6794 51.5375 50.8826 52.1347 50.5362C52.7319 50.1899 52.9351 49.4249 52.5887 48.8278L50.4262 50.0822ZM15.6262 50.0818C17.3896 47.0419 19.9256 44.5171 22.9799 42.7615L21.734 40.594C18.3002 42.5678 15.4477 45.4072 13.4637 48.8274L15.6262 50.0818ZM22.9799 42.7615C26.0342 41.0058 29.4991 40.0814 33.0263 40.0815L33.0263 37.5815C29.0623 37.5814 25.1679 38.6203 21.734 40.594L22.9799 42.7615ZM33.0263 40.0815C36.5535 40.0815 40.0184 41.006 43.0726 42.7617L44.3186 40.5943C40.8848 38.6204 36.9903 37.5815 33.0263 37.5815L33.0263 40.0815ZM43.0726 42.7617C46.1269 44.5174 48.6629 47.0423 50.4262 50.0822L52.5887 48.8278C50.6048 45.4075 47.7524 42.5681 44.3186 40.5943L43.0726 42.7617ZM43.9685 26.6887C43.9685 32.6998 39.0744 37.5815 33.0263 37.5815V40.0815C40.4456 40.0815 46.4685 34.0901 46.4685 26.6887H43.9685ZM33.0263 37.5815C26.9782 37.5815 22.0837 32.6998 22.0837 26.6887H19.5837C19.5837 34.0901 25.6071 40.0815 33.0263 40.0815V37.5815ZM22.0837 26.6887C22.0837 20.6776 26.978 15.7959 33.0261 15.7959V13.2959C25.6069 13.2959 19.5837 19.2873 19.5837 26.6887H22.0837ZM33.0261 15.7959C39.0742 15.7959 43.9685 20.6776 43.9685 26.6887H46.4685C46.4685 19.2873 40.4453 13.2959 33.0261 13.2959V15.7959Z" fill="#080709"/>
    </svg>
