<svg width="64" height="64" viewBox="0 0 64 64" fill="none" xmlns="http://www.w3.org/2000/svg">
<g id="silhouette">
<g id="Icon">
<path id="Vector" d="M13.4642 48.8269C13.1178 49.4241 13.321 50.189 13.9182 50.5354C14.5153 50.8818 15.2802 50.6785 15.6267 50.0813L13.4642 48.8269ZM50.4267 50.0817C50.7731 50.6789 51.538 50.8822 52.1352 50.5358C52.7323 50.1894 52.9356 49.4245 52.5892 48.8273L50.4267 50.0817ZM15.6267 50.0813C17.3901 47.0414 19.9261 44.5166 22.9804 42.761L21.7345 40.5935C18.3007 42.5673 15.4482 45.4067 13.4642 48.8269L15.6267 50.0813ZM22.9804 42.761C26.0347 41.0054 29.4996 40.0809 33.0268 40.081L33.0268 37.581C29.0628 37.5809 25.1683 38.6198 21.7345 40.5935L22.9804 42.761ZM33.0268 40.081C36.554 40.081 40.0188 41.0055 43.0731 42.7612L44.319 40.5938C40.8853 38.6199 36.9908 37.581 33.0268 37.581L33.0268 40.081ZM43.0731 42.7612C46.1274 44.5169 48.6633 47.0418 50.4267 50.0817L52.5892 48.8273C50.6053 45.4071 47.7528 42.5676 44.319 40.5938L43.0731 42.7612ZM43.969 26.6882C43.969 32.6993 39.0749 37.581 33.0268 37.581V40.081C40.446 40.081 46.469 34.0896 46.469 26.6882H43.969ZM33.0268 37.581C26.9787 37.581 22.0842 32.6993 22.0842 26.6882H19.5842C19.5842 34.0896 25.6076 40.081 33.0268 40.081V37.581ZM22.0842 26.6882C22.0842 20.6771 26.9785 15.7954 33.0266 15.7954V13.2954C25.6074 13.2954 19.5842 19.2868 19.5842 26.6882H22.0842ZM33.0266 15.7954C39.0747 15.7954 43.969 20.6771 43.969 26.6882H46.469C46.469 19.2868 40.4458 13.2954 33.0266 13.2954V15.7954Z" fill="#ECB761"/>
</g>
</g>
</svg>
