<svg width="40" height="40" viewBox="0 0 40 40" fill="none" xmlns="http://www.w3.org/2000/svg">
<g id="Trash">
<path id="Vector" d="M14.9231 15L15.6282 26.7273C15.6617 27.4627 16.1359 28 16.7564 28H23.2436C23.8666 28 24.332 27.4627 24.3718 26.7273L25.0769 15M14 15H26M17.9487 14.5455V12.9545C17.9484 12.8291 17.9681 12.7048 18.0067 12.5888C18.0452 12.4728 18.1019 12.3675 18.1734 12.2788C18.2448 12.1901 18.3298 12.1198 18.4232 12.0719C18.5167 12.0241 18.6168 11.9996 18.7179 12H21.2821C21.3832 11.9996 21.4833 12.0241 21.5768 12.0719C21.6702 12.1198 21.7552 12.1901 21.8266 12.2788C21.8981 12.3675 21.9548 12.4728 21.9933 12.5888C22.0319 12.7048 22.0516 12.8291 22.0513 12.9545V14.5455" stroke="#CD9EFF" stroke-width="1.5" stroke-linecap="round" stroke-linejoin="round"/>
</g>
</svg>
