<svg width="64" height="64" viewBox="0 0 64 64" fill="none" xmlns="http://www.w3.org/2000/svg">
<g id="truck">
<path id="Vector" d="M55.1534 25.7615L52.2685 18.4915C52.0238 17.8764 51.6015 17.3496 51.0562 16.9792C50.511 16.6089 49.868 16.4121 49.2106 16.4144H42.085V14.7527C42.085 14.3119 41.9113 13.8893 41.6022 13.5776C41.293 13.266 40.8737 13.0909 40.4365 13.0909H9.11533C8.24092 13.0909 7.40232 13.4411 6.78402 14.0644C6.16572 14.6876 5.81836 15.5329 5.81836 16.4144V39.6784C5.81836 40.5598 6.16572 41.4052 6.78402 42.0284C7.40232 42.6517 8.24092 43.0019 9.11533 43.0019H12.6184C12.9815 44.4316 13.8064 45.6989 14.963 46.6039C16.1196 47.5088 17.5421 48 19.0062 48C20.4704 48 21.8929 47.5088 23.0495 46.6039C24.2061 45.6989 25.031 44.4316 25.3941 43.0019H35.6971C36.0603 44.4316 36.8852 45.6989 38.0418 46.6039C39.1984 47.5088 40.6209 48 42.085 48C43.5492 48 44.9716 47.5088 46.1282 46.6039C47.2848 45.6989 48.1097 44.4316 48.4729 43.0019H51.9759C52.8503 43.0019 53.6889 42.6517 54.3072 42.0284C54.9255 41.4052 55.2729 40.5598 55.2729 39.6784V26.3847C55.2735 26.1711 55.2329 25.9595 55.1534 25.7615ZM42.085 19.7378H49.2106L51.1888 24.723H42.085V19.7378ZM9.11533 16.4144H38.7881V29.7081H9.11533V16.4144ZM19.0062 44.6636C18.3542 44.6636 17.7167 44.4687 17.1745 44.1035C16.6324 43.7383 16.2098 43.2192 15.9602 42.612C15.7107 42.0047 15.6454 41.3364 15.7726 40.6918C15.8998 40.0471 16.2138 39.4549 16.6749 38.9901C17.136 38.5253 17.7235 38.2088 18.363 38.0806C19.0026 37.9523 19.6655 38.0181 20.2679 38.2697C20.8704 38.5212 21.3853 38.9472 21.7476 39.4937C22.1098 40.0403 22.3032 40.6828 22.3032 41.3401C22.3032 42.2216 21.9558 43.0669 21.3375 43.6902C20.7192 44.3134 19.8806 44.6636 19.0062 44.6636ZM35.6971 39.6784H25.3941C25.031 38.2487 24.2061 36.9814 23.0495 36.0764C21.8929 35.1714 20.4704 34.6802 19.0062 34.6802C17.5421 34.6802 16.1196 35.1714 14.963 36.0764C13.8064 36.9814 12.9815 38.2487 12.6184 39.6784H9.11533V33.0315H38.7881V35.5885C38.03 36.0302 37.3665 36.6191 36.8359 37.3212C36.3053 38.0232 35.9183 38.8245 35.6971 39.6784ZM42.085 44.6636C41.4329 44.6636 40.7955 44.4687 40.2533 44.1035C39.7111 43.7383 39.2886 43.2192 39.039 42.612C38.7895 42.0047 38.7242 41.3364 38.8514 40.6918C38.9786 40.0471 39.2926 39.4549 39.7537 38.9901C40.2148 38.5253 40.8023 38.2088 41.4418 38.0806C42.0814 37.9523 42.7443 38.0181 43.3467 38.2697C43.9492 38.5212 44.4641 38.9472 44.8264 39.4937C45.1886 40.0403 45.382 40.6828 45.382 41.3401C45.382 42.2216 45.0346 43.0669 44.4163 43.6902C43.798 44.3134 42.9594 44.6636 42.085 44.6636ZM51.9759 39.6784H48.4729C48.1054 38.2521 47.2789 36.989 46.123 36.0869C44.967 35.1848 43.5469 34.6947 42.085 34.6933V28.0464H51.9759V39.6784Z" fill="#ECB761"/>
</g>
</svg>
