<svg width="64" height="65" viewBox="0 0 64 65" fill="none" xmlns="http://www.w3.org/2000/svg">
    <path
        d="M53.3946 21.9486C53.3569 21.8983 53.2976 21.8686 53.2346 21.8686H45.5346C45.4242 21.8686 45.3346 21.7791 45.3346 21.6686V11.402C45.3346 11.2915 45.2451 11.202 45.1346 11.202H8.08415C8.0311 11.202 7.98025 11.223 7.94274 11.2605C6.63856 12.5647 5.31572 13.8875 2.72725 16.476C2.68974 16.5135 2.66797 16.5651 2.66797 16.6181V45.6686C2.66797 45.7791 2.75751 45.8686 2.86797 45.8686H7.8013C7.91176 45.8686 8.00105 45.9588 8.00375 46.0692C8.10977 50.4027 11.6417 53.8686 16.0013 53.8686C20.3609 53.8686 23.8928 50.4027 23.9989 46.0692C24.0016 45.9588 24.0908 45.8686 24.2013 45.8686H39.8013C39.9118 45.8686 40.0011 45.9588 40.0038 46.0692C40.1098 50.4027 43.6417 53.8686 48.0013 53.8686C52.3609 53.8686 55.8928 50.4027 55.9989 46.0692C56.0016 45.9588 56.0908 45.8686 56.2013 45.8686H61.1346C61.2451 45.8686 61.3346 45.7791 61.3346 45.6686V32.602C61.3346 32.5587 61.3206 32.5166 61.2946 32.482L53.3946 21.9486ZM16.0013 49.8686C13.788 49.8686 12.0013 48.082 12.0013 45.8686C12.0013 43.6553 13.788 41.8686 16.0013 41.8686C18.2146 41.8686 20.0013 43.6553 20.0013 45.8686C20.0013 48.082 18.2146 49.8686 16.0013 49.8686ZM34.668 29.6686C34.668 29.7791 34.5784 29.8686 34.468 29.8686H13.5346C13.4242 29.8686 13.3346 29.7791 13.3346 29.6686V24.7353C13.3346 24.6248 13.4242 24.5353 13.5346 24.5353H34.468C34.5784 24.5353 34.668 24.6248 34.668 24.7353V29.6686ZM48.0013 49.8686C45.788 49.8686 44.0013 48.082 44.0013 45.8686C44.0013 43.6553 45.788 41.8686 48.0013 41.8686C50.2146 41.8686 52.0013 43.6553 52.0013 45.8686C52.0013 48.082 50.2146 49.8686 48.0013 49.8686ZM45.5346 32.5353C45.4242 32.5353 45.3346 32.4458 45.3346 32.3353V26.0686C45.3346 25.9582 45.4242 25.8686 45.5346 25.8686H51.904C51.9654 25.8686 52.0234 25.8969 52.0614 25.9452L56.9744 32.2119C57.0773 32.3432 56.9838 32.5353 56.817 32.5353H45.5346Z"
        fill="#080709" />
</svg>
    