<svg xmlns="http://www.w3.org/2000/svg" width="64" height="64" viewBox="0 0 64 64" fill="none">
    <path d="M55.1534 25.7615L52.2685 18.4915C52.0238 17.8764 51.6015 17.3495 51.0562 16.9792C50.511 16.6088 49.868 16.412 49.2106 16.4143H42.085V14.7526C42.085 14.3119 41.9113 13.8892 41.6022 13.5776C41.293 13.266 40.8737 13.0909 40.4365 13.0909H9.11533C8.24092 13.0909 7.40232 13.441 6.78402 14.0643C6.16572 14.6876 5.81836 15.5329 5.81836 16.4143V39.6784C5.81836 40.5598 6.16572 41.4051 6.78402 42.0284C7.40232 42.6516 8.24092 43.0018 9.11533 43.0018H12.6184C12.9815 44.4316 13.8064 45.6988 14.963 46.6038C16.1196 47.5088 17.5421 48 19.0062 48C20.4704 48 21.8929 47.5088 23.0495 46.6038C24.2061 45.6988 25.031 44.4316 25.3941 43.0018H35.6971C36.0603 44.4316 36.8852 45.6988 38.0418 46.6038C39.1984 47.5088 40.6209 48 42.085 48C43.5492 48 44.9716 47.5088 46.1282 46.6038C47.2848 45.6988 48.1097 44.4316 48.4729 43.0018H51.9759C52.8503 43.0018 53.6889 42.6516 54.3072 42.0284C54.9255 41.4051 55.2729 40.5598 55.2729 39.6784V26.3846C55.2735 26.1711 55.2329 25.9594 55.1534 25.7615ZM42.085 19.7378H49.2106L51.1888 24.7229H42.085V19.7378ZM9.11533 16.4143H38.7881V29.7081H9.11533V16.4143ZM19.0062 44.6635C18.3542 44.6635 17.7167 44.4686 17.1745 44.1034C16.6324 43.7382 16.2098 43.2192 15.9602 42.6119C15.7107 42.0046 15.6454 41.3364 15.7726 40.6917C15.8998 40.047 16.2138 39.4548 16.6749 38.99C17.136 38.5253 17.7235 38.2087 18.363 38.0805C19.0026 37.9523 19.6655 38.0181 20.2679 38.2696C20.8704 38.5212 21.3853 38.9471 21.7476 39.4937C22.1098 40.0402 22.3032 40.6828 22.3032 41.3401C22.3032 42.2215 21.9558 43.0668 21.3375 43.6901C20.7192 44.3134 19.8806 44.6635 19.0062 44.6635ZM35.6971 39.6784H25.3941C25.031 38.2486 24.2061 36.9813 23.0495 36.0764C21.8929 35.1714 20.4704 34.6802 19.0062 34.6802C17.5421 34.6802 16.1196 35.1714 14.963 36.0764C13.8064 36.9813 12.9815 38.2486 12.6184 39.6784H9.11533V33.0315H38.7881V35.5885C38.03 36.0301 37.3665 36.6191 36.8359 37.3211C36.3053 38.0232 35.9183 38.8244 35.6971 39.6784ZM42.085 44.6635C41.4329 44.6635 40.7955 44.4686 40.2533 44.1034C39.7111 43.7382 39.2886 43.2192 39.039 42.6119C38.7895 42.0046 38.7242 41.3364 38.8514 40.6917C38.9786 40.047 39.2926 39.4548 39.7537 38.99C40.2148 38.5253 40.8023 38.2087 41.4418 38.0805C42.0814 37.9523 42.7443 38.0181 43.3467 38.2696C43.9492 38.5212 44.4641 38.9471 44.8264 39.4937C45.1886 40.0402 45.382 40.6828 45.382 41.3401C45.382 42.2215 45.0346 43.0668 44.4163 43.6901C43.798 44.3134 42.9594 44.6635 42.085 44.6635ZM51.9759 39.6784H48.4729C48.1054 38.2521 47.2789 36.9889 46.123 36.0868C44.967 35.1847 43.5469 34.6946 42.085 34.6932V28.0463H51.9759V39.6784Z" fill="#080709"/>
    </svg>