<svg width="36" height="36" viewBox="0 0 36 36" fill="none" xmlns="http://www.w3.org/2000/svg">
<g id="Icon / 24 px / User ">
<g id="Icon">
<path id="Vector" d="M8.35125 25.6235C8.14341 25.9818 8.26537 26.4407 8.62367 26.6486C8.98196 26.8564 9.4409 26.7344 9.64875 26.3762L8.35125 25.6235ZM26.3512 26.3763C26.5591 26.7346 27.018 26.8566 27.3763 26.6488C27.7346 26.4409 27.8566 25.982 27.6488 25.6237L26.3512 26.3763ZM9.64875 26.3762C10.495 24.9173 11.7121 23.7055 13.1781 22.8629L12.4305 21.5624C10.7369 22.5359 9.32991 23.9364 8.35125 25.6235L9.64875 26.3762ZM13.1781 22.8629C14.644 22.0203 16.307 21.5765 18 21.5766L18.0001 20.0766C16.045 20.0765 14.1242 20.5889 12.4305 21.5624L13.1781 22.8629ZM18 21.5766C19.693 21.5766 21.3561 22.0203 22.822 22.863L23.5695 21.5625C21.8759 20.589 19.9551 20.0766 18.0001 20.0766L18 21.5766ZM22.822 22.863C24.2879 23.7056 25.505 24.9174 26.3512 26.3763L27.6488 25.6237C26.6701 23.9366 25.2632 22.5361 23.5695 21.5625L22.822 22.863ZM23.1874 14.9133C23.1874 17.762 20.8679 20.0766 18.0001 20.0766V21.5766C21.6906 21.5766 24.6874 18.5962 24.6874 14.9133H23.1874ZM18.0001 20.0766C15.1322 20.0766 12.8125 17.762 12.8125 14.9133H11.3125C11.3125 18.5962 14.3096 21.5766 18.0001 21.5766V20.0766ZM12.8125 14.9133C12.8125 12.0646 15.1321 9.75 17.9999 9.75V8.25C14.3095 8.25 11.3125 11.2304 11.3125 14.9133H12.8125ZM17.9999 9.75C20.8678 9.75 23.1874 12.0646 23.1874 14.9133H24.6874C24.6874 11.2304 21.6904 8.25 17.9999 8.25V9.75Z" fill="#C18170"/>
</g>
</g>
</svg>
