<svg width="40" height="40" viewBox="0 0 40 40" fill="none" xmlns="http://www.w3.org/2000/svg">
<path d="M35.5725 17.15H35.1145C34.5038 18.65 34.0458 19.4 33.5878 21.65H36.4885C36.0305 19.4 36.0305 18.35 35.5725 17.15ZM40 26H37.4046C37.2519 26 37.2519 26 37.0992 25.85L36.7939 24.5L36.6412 24.2H32.9771C32.8244 24.2 32.6718 24.2 32.6718 24.5L32.2137 25.85C32.2137 26 32.0611 26 32.0611 26H28.855L29.1603 25.25L33.5878 15.05C33.5878 14.3 34.0458 14 34.8092 14H37.0992C37.2519 14 37.4046 14 37.4046 14.3L39.542 24.05C39.6947 24.65 39.8473 25.1 39.8473 25.7C40 25.85 40 25.85 40 26ZM19.542 25.55L20.1527 22.85C20.3053 22.85 20.458 23 20.458 23C21.5267 23.45 22.5954 23.75 23.6641 23.6C23.9695 23.6 24.4275 23.45 24.7328 23.3C25.4962 23 25.4962 22.25 24.8855 21.65C24.5802 21.35 24.1221 21.2 23.6641 20.9C23.0534 20.6 22.4427 20.3 21.9847 19.85C20.1527 18.35 20.7634 16.25 21.8321 15.2C22.7481 14.6 23.2061 14 24.4275 14C26.2595 14 28.2443 14 29.1603 14.3H29.313C29.1603 15.2 29.0076 15.95 28.7023 16.85C27.9389 16.55 27.1756 16.25 26.4122 16.25C25.9542 16.25 25.4962 16.25 25.0382 16.4C24.7328 16.4 24.5802 16.55 24.4275 16.7C24.1221 17 24.1221 17.45 24.4275 17.75L25.1908 18.35C25.8015 18.65 26.4122 18.95 26.8702 19.25C27.6336 19.7 28.3969 20.45 28.5496 21.35C28.855 22.7 28.3969 23.9 27.1756 24.8C26.4122 25.4 26.1069 25.7 25.0382 25.7C22.9008 25.7 21.2214 25.85 19.8473 25.4C19.6947 25.7 19.6947 25.7 19.542 25.55ZM14.1985 26C14.3511 24.95 14.3511 24.95 14.5038 24.5C15.2672 21.2 16.0305 17.75 16.6412 14.45C16.7939 14.15 16.7939 14 17.0992 14H19.8473C19.542 15.8 19.2366 17.15 18.7786 18.8C18.3206 21.05 17.8626 23.3 17.2519 25.55C17.2519 25.85 17.0992 25.85 16.7939 25.85L14.1985 26ZM0 14.3C0 14.15 0.305344 14 0.458016 14H5.64885C6.41221 14 7.0229 14.45 7.17557 15.2L8.54962 21.8C8.54962 21.95 8.54962 21.95 8.70229 22.1C8.70229 21.95 8.85496 21.95 8.85496 21.95L12.0611 14.3C11.9084 14.15 12.0611 14 12.2137 14H15.4198C15.4198 14.15 15.4198 14.15 15.2672 14.3L10.5344 25.25C10.3817 25.55 10.3817 25.7 10.229 25.85C10.0763 26 9.77099 25.85 9.46565 25.85H7.17557C7.0229 25.85 6.87023 25.85 6.87023 25.55L4.42748 16.25C4.12214 15.95 3.66412 15.5 3.05344 15.35C2.1374 14.9 0.458015 14.6 0.152672 14.6L0 14.3Z" fill="#142688"/>
</svg>
