<svg width="20" height="20" viewBox="0 0 20 20" fill="none" xmlns="http://www.w3.org/2000/svg">
<g id="Icon / 20 px / Star ">
<g id="Icon">
<path id="Vector" d="M10.2545 13.6192L13.1642 15.4627C13.5362 15.6983 13.9979 15.3479 13.8876 14.9137L13.0469 11.6066C13.0232 11.5145 13.026 11.4176 13.055 11.327C13.0839 11.2364 13.1379 11.1559 13.2106 11.0946L15.8199 8.92282C16.1627 8.63746 15.9858 8.06847 15.5453 8.03988L12.1377 7.81873C12.046 7.81218 11.9579 7.77968 11.8839 7.72503C11.8099 7.67038 11.7529 7.59582 11.7196 7.51004L10.4487 4.30968C10.4142 4.21863 10.3528 4.14025 10.2726 4.08494C10.1925 4.02962 10.0974 4 10 4C9.90262 4 9.80754 4.02962 9.7274 4.08494C9.64725 4.14025 9.58583 4.21863 9.55128 4.30968L8.28041 7.51004C8.24712 7.59582 8.19014 7.67038 8.11611 7.72503C8.04208 7.77968 7.95405 7.81218 7.86227 7.81873L4.45473 8.03988C4.01425 8.06847 3.83729 8.63746 4.18014 8.92282L6.7894 11.0946C6.86212 11.1559 6.91606 11.2364 6.94502 11.327C6.97398 11.4176 6.97678 11.5145 6.95311 11.6066L6.17347 14.6736C6.04103 15.1946 6.59517 15.6151 7.0415 15.3323L9.74552 13.6192C9.82157 13.5708 9.90985 13.5451 10 13.5451C10.0902 13.5451 10.1784 13.5708 10.2545 13.6192V13.6192Z" stroke="#ECB761" stroke-linecap="round" stroke-linejoin="round"/>
</g>
</g>
</svg>
