<svg width="13" height="15" viewBox="0 0 13 15" fill="none" xmlns="http://www.w3.org/2000/svg">
<path d="M10.2486 6.85075C10.6036 10.3449 12 11.4013 12 11.4013H1C1 11.4013 2.83333 10.0147 2.83333 5.16053C2.83333 4.05734 3.21956 2.999 3.90706 2.21891C4.59517 1.43881 5.52833 1 6.5 1C6.70594 1 6.91067 1.0195 7.11111 1.05851M7.55722 13.3516C7.44991 13.5488 7.29574 13.7125 7.11018 13.8263C6.92462 13.9401 6.71419 14 6.5 14C6.28581 14 6.07538 13.9401 5.88982 13.8263C5.70426 13.7125 5.55009 13.5488 5.44278 13.3516" stroke="#080709" stroke-width="1.5" stroke-linecap="round" stroke-linejoin="round"/>
</svg>
