<svg width="16" height="14" viewBox="0 0 16 14" fill="none" xmlns="http://www.w3.org/2000/svg">
<path d="M9.7149e-06 5.65384C9.7149e-06 2.53131 2.68629 0 6.00001 0C9.31372 0 12 2.53131 12 5.65384C12 8.77638 9.31429 11.3077 6.00001 11.3077C5.03658 11.3077 4.12515 11.0934 3.31715 10.7121L1.08001 11.277C0.934687 11.3137 0.781681 11.3137 0.636365 11.277C0.49105 11.2403 0.358545 11.1682 0.252165 11.0679C0.145785 10.9677 0.0692779 10.8428 0.0303322 10.7059C-0.00861359 10.569 -0.00862626 10.4248 0.0302954 10.2878L0.630295 8.17815C0.214175 7.39454 -0.00166877 6.53008 9.7149e-06 5.65384ZM6.00001 12.1154C6.38058 12.1154 6.75372 12.0863 7.11715 12.0303C7.95154 12.6117 8.96228 12.9247 10 12.9231C10.8491 12.9231 11.6457 12.7185 12.3394 12.3582C12.4686 12.2912 12.6204 12.2738 12.7629 12.3098L14.7377 12.8084L14.2086 10.9464C14.1706 10.8123 14.189 10.6695 14.26 10.5479C14.6533 9.87334 14.8588 9.11583 14.8571 8.34615C14.8576 7.60579 14.6673 6.87639 14.3025 6.22067C13.9377 5.56495 13.4093 5.00253 12.7629 4.58177C12.6744 4.08212 12.5235 3.5941 12.3131 3.12792C13.4053 3.55815 14.3381 4.28312 14.9941 5.21162C15.6501 6.14012 16.0001 7.23069 16 8.34615C16.0009 9.22225 15.7853 10.0865 15.3703 10.8705L15.9703 12.9802C16.0093 13.1171 16.0093 13.2614 15.9703 13.3984C15.9313 13.5354 15.8548 13.6603 15.7483 13.7605C15.6418 13.8608 15.5092 13.9329 15.3638 13.9695C15.2184 14.0062 15.0654 14.0061 14.92 13.9693L12.6829 13.4045C11.85 13.7972 10.9313 14.0011 10 14C8.21486 14 6.61143 13.2655 5.51258 12.0992C5.67372 12.11 5.83601 12.1154 6.00001 12.1154Z" fill="#080709"/>
</svg>
