<svg width="14" height="18" viewBox="0 0 14 18" fill="none" xmlns="http://www.w3.org/2000/svg">
<path d="M1.92308 4L2.62821 15.7273C2.6617 16.4627 3.1359 17 3.75641 17H10.2436C10.8666 17 11.332 16.4627 11.3718 15.7273L12.0769 4M1 4H13M4.94872 3.54546V1.95455C4.94842 1.82909 4.96812 1.7048 5.00667 1.58883C5.04522 1.47285 5.10187 1.36748 5.17336 1.27876C5.24485 1.19005 5.32977 1.11976 5.42323 1.07192C5.51669 1.02408 5.61685 0.999637 5.71795 1H8.28205C8.38315 0.999637 8.48331 1.02408 8.57677 1.07192C8.67023 1.11976 8.75515 1.19005 8.82664 1.27876C8.89813 1.36748 8.95478 1.47285 8.99333 1.58883C9.03188 1.7048 9.05158 1.82909 9.05128 1.95455V3.54546" stroke="#CD9EFF" stroke-width="1.5" stroke-linecap="round" stroke-linejoin="round"/>
</svg>
