<svg width="20" height="14" viewBox="0 0 20 14" fill="none" xmlns="http://www.w3.org/2000/svg">
<path d="M9.986 1.59961C6.85461 1.59961 3.64247 3.29123 1.11374 6.67448C1.04156 6.77212 1.00201 6.88753 1.00007 7.00614C0.998143 7.12474 1.03392 7.24123 1.10289 7.34086C3.04584 10.1796 6.215 12.3996 9.986 12.3996C13.716 12.3996 16.9503 10.1729 18.8968 7.32773C18.9642 7.23005 19 7.11634 19 7.00017C19 6.88401 18.9642 6.77029 18.8968 6.67261C16.9458 3.86011 13.6879 1.59961 9.986 1.59961Z" stroke="#080709" stroke-width="1.5" stroke-linecap="round" stroke-linejoin="round"/>
<path d="M9.99688 9.69883C11.488 9.69883 12.6969 8.49 12.6969 6.99883C12.6969 5.50766 11.488 4.29883 9.99688 4.29883C8.50571 4.29883 7.29688 5.50766 7.29688 6.99883C7.29688 8.49 8.50571 9.69883 9.99688 9.69883Z" fill="#080709"/>
</svg>
