<svg width="14" height="14" viewBox="0 0 14 14" fill="none" xmlns="http://www.w3.org/2000/svg">
<path d="M1.07692 11.9986C1.07692 12.5294 1.30385 13.0385 1.70777 13.4138C2.11169 13.7891 2.65953 14 3.23077 14H6.32692C6.36263 14 6.39687 13.9868 6.42211 13.9634C6.44736 13.9399 6.46154 13.9081 6.46154 13.8749V8.12097C6.46154 8.08779 6.44736 8.05597 6.42211 8.03252C6.39687 8.00906 6.36263 7.99588 6.32692 7.99588H1.34615C1.27475 7.99588 1.20627 8.02224 1.15578 8.06915C1.10529 8.11607 1.07692 8.1797 1.07692 8.24605V11.9986ZM6.46154 6.87011V3.49279H7.53846V6.87011C7.53846 6.90328 7.55264 6.9351 7.57789 6.95856C7.60314 6.98202 7.63737 6.99519 7.67308 6.99519H12.3846C12.5681 6.99519 12.7502 6.9661 12.9231 6.9092C13.2378 6.80538 13.5102 6.61367 13.703 6.36033C13.8958 6.10699 13.9995 5.80445 14 5.49416V4.99382C14 4.59572 13.8298 4.21393 13.5269 3.93243C13.2239 3.65093 12.813 3.49279 12.3846 3.49279H11.0203C11.0086 3.49262 10.9971 3.4896 10.987 3.48404C10.9769 3.47848 10.9686 3.47057 10.9628 3.46109C10.957 3.45161 10.954 3.44089 10.9541 3.43C10.9541 3.4191 10.9572 3.40841 10.9631 3.39898C11.2747 2.91017 11.3759 2.32998 11.2464 1.77474C11.1169 1.21951 10.7663 0.730285 10.2649 0.40516C9.76356 0.0800354 9.14845 -0.0569499 8.54293 0.0216716C7.93741 0.100293 7.38627 0.388709 7 0.829087C6.61374 0.388709 6.06259 0.100293 5.45707 0.0216716C4.85155 -0.0569499 4.23644 0.0800354 3.73505 0.40516C3.23367 0.730285 2.8831 1.21951 2.75362 1.77474C2.62415 2.32998 2.72534 2.91017 3.03692 3.39898C3.04279 3.40841 3.0459 3.4191 3.04594 3.43C3.04599 3.44089 3.04298 3.45161 3.0372 3.46109C3.03142 3.47057 3.02307 3.47848 3.01299 3.48404C3.00291 3.4896 2.99143 3.49262 2.97971 3.49279H1.61538C1.18696 3.49279 0.776079 3.65093 0.473135 3.93243C0.170192 4.21393 0 4.59572 0 4.99382V5.49416C0.000475267 5.80445 0.104227 6.10699 0.29703 6.36033C0.489833 6.61367 0.762247 6.80538 1.07692 6.9092C1.24984 6.9661 1.43194 6.99519 1.61538 6.99519H6.32692C6.36263 6.99519 6.39687 6.98202 6.42211 6.95856C6.44736 6.9351 6.46154 6.90328 6.46154 6.87011ZM7.53846 2.24193C7.53846 1.99454 7.61741 1.75269 7.76533 1.54699C7.91325 1.34129 8.12349 1.18096 8.36946 1.08629C8.61544 0.991615 8.88611 0.966844 9.14724 1.01511C9.40837 1.06337 9.64823 1.18251 9.83649 1.35744C10.0248 1.53238 10.153 1.75526 10.2049 1.9979C10.2568 2.24054 10.2302 2.49205 10.1283 2.72061C10.0264 2.94918 9.85387 3.14454 9.6325 3.28198C9.41113 3.41943 9.15086 3.49279 8.88462 3.49279H7.53846V2.24193ZM5.01913 0.994201C5.20356 0.981916 5.38873 1.00507 5.5631 1.06221C5.73746 1.11935 5.8973 1.20925 6.03263 1.32632C6.16796 1.44338 6.27589 1.5851 6.34968 1.74263C6.42347 1.90016 6.46155 2.07013 6.46154 2.24193V3.49279H5.11539C4.7673 3.49196 4.43309 3.36587 4.18291 3.14099C3.93272 2.91611 3.786 2.60992 3.77355 2.28669C3.76109 1.96345 3.88387 1.6483 4.11611 1.40737C4.34836 1.16644 4.67201 1.01847 5.01913 0.994513V0.994201ZM7.67308 14H10.7692C11.3405 14 11.8883 13.7891 12.2922 13.4138C12.6962 13.0385 12.9231 12.5294 12.9231 11.9986V8.24605C12.9231 8.1797 12.8947 8.11607 12.8442 8.06915C12.7937 8.02224 12.7253 7.99588 12.6538 7.99588H7.67308C7.63737 7.99588 7.60314 8.00906 7.57789 8.03252C7.55264 8.05597 7.53846 8.08779 7.53846 8.12097V13.8749C7.53846 13.9081 7.55264 13.9399 7.57789 13.9634C7.60314 13.9868 7.63737 14 7.67308 14Z" fill="#080709"/>
</svg>
