<svg width="15" height="15" viewBox="0 0 15 15" fill="none" xmlns="http://www.w3.org/2000/svg">
<path d="M13.5 0H1.5C0.675 0 0.00749999 0.675 0.00749999 1.5L0 15L3 12H13.5C14.325 12 15 11.325 15 10.5V1.5C15 0.675 14.325 0 13.5 0ZM3.75 5.25H11.25C11.6625 5.25 12 5.5875 12 6C12 6.4125 11.6625 6.75 11.25 6.75H3.75C3.3375 6.75 3 6.4125 3 6C3 5.5875 3.3375 5.25 3.75 5.25ZM8.25 9H3.75C3.3375 9 3 8.6625 3 8.25C3 7.8375 3.3375 7.5 3.75 7.5H8.25C8.6625 7.5 9 7.8375 9 8.25C9 8.6625 8.6625 9 8.25 9ZM11.25 4.5H3.75C3.3375 4.5 3 4.1625 3 3.75C3 3.3375 3.3375 3 3.75 3H11.25C11.6625 3 12 3.3375 12 3.75C12 4.1625 11.6625 4.5 11.25 4.5Z" fill="#080709"/>
</svg>
