<svg width="14" height="14" viewBox="0 0 14 14" fill="none" xmlns="http://www.w3.org/2000/svg">
<path d="M10.0194 3.35239L1.51531 11.8774L1 13.1249L2.2475 12.6096L10.7725 4.10551L10.0194 3.35239ZM11.7209 1.65114L11.3525 2.01926L12.1056 2.77239L12.4741 2.40395C12.5707 2.3072 12.625 2.17603 12.625 2.03926C12.625 1.90249 12.5707 1.77132 12.4741 1.67457L12.4506 1.65114C12.4027 1.60322 12.3458 1.56521 12.2832 1.53928C12.2206 1.51335 12.1535 1.5 12.0858 1.5C12.018 1.5 11.9509 1.51335 11.8883 1.53928C11.8257 1.56521 11.7688 1.60322 11.7209 1.65114Z" stroke="#7F7C83" stroke-width="1.5" stroke-linecap="round" stroke-linejoin="round"/>
</svg>
