<svg width="20" height="16" viewBox="0 0 20 16" fill="none" xmlns="http://www.w3.org/2000/svg">
<path d="M19.5321 3.03563L15.2582 1.12583C15.1259 1.06671 14.9766 1.16352 14.9766 1.30843V7.05335C14.9766 7.15894 15.0823 7.24453 15.2127 7.24453H17.1872C17.2791 7.24453 17.3627 7.20135 17.4014 7.13386L19.6144 3.27474C19.6633 3.18949 19.6284 3.08811 19.5321 3.03563Z" fill="#080709"/>
<path d="M1.10071 3.03563L5.37466 1.12583C5.50695 1.06671 5.65625 1.16352 5.65625 1.30843V7.05335C5.65625 7.15894 5.55053 7.24453 5.42011 7.24453H3.44559C3.35368 7.24453 3.27012 7.20135 3.23142 7.13386L1.01839 3.27474C0.969499 3.18949 1.0044 3.08811 1.10071 3.03563Z" fill="#080709"/>
<path d="M8.31327 1.65234H5.96625C5.79504 1.65234 5.65625 1.79114 5.65625 1.96234V13.6523C5.65625 14.2046 6.10396 14.6523 6.65625 14.6523H13.9759C14.5282 14.6523 14.9759 14.2046 14.9759 13.6523V1.96234C14.9759 1.79114 14.8371 1.65234 14.6659 1.65234H12.3189C12.2354 1.65234 12.1606 1.70413 12.1329 1.78293C11.85 2.58878 11.6418 3.50949 10.3161 3.50949C8.9904 3.50949 8.78219 2.58878 8.49928 1.78293C8.47162 1.70413 8.39678 1.65234 8.31327 1.65234Z" stroke="#080709" stroke-width="1.5"/>
</svg>
